ply
format ascii 1.0
comment Created by Blender 2.93.1 - www.blender.org
element vertex 98
property float x
property float y
property float z
element face 96
property list uchar uint vertex_indices
end_header
-0.500000 -0.500000 1.000000
-1.000000 -0.500000 1.000000
-1.000000 -1.000000 1.000000
-0.500000 -1.000000 1.000000
-0.500000 -1.000000 0.500000
-1.000000 -1.000000 0.500000
-1.000000 0.500000 0.500000
-1.000000 0.500000 1.000000
-1.000000 1.000000 1.000000
-1.000000 1.000000 0.500000
0.500000 -0.500000 -1.000000
1.000000 -0.500000 -1.000000
1.000000 -1.000000 -1.000000
0.500000 -1.000000 -1.000000
1.000000 -0.500000 0.500000
1.000000 -0.500000 1.000000
1.000000 -1.000000 1.000000
1.000000 -1.000000 0.500000
0.500000 1.000000 0.500000
0.500000 1.000000 1.000000
1.000000 1.000000 1.000000
1.000000 1.000000 0.500000
0.500000 1.000000 -0.500000
0.500000 1.000000 0.000000
1.000000 1.000000 0.000000
1.000000 1.000000 -0.500000
-0.500000 1.000000 -0.500000
-0.500000 1.000000 0.000000
0.000000 1.000000 0.000000
0.000000 1.000000 -0.500000
-0.500000 1.000000 0.500000
-0.500000 1.000000 1.000000
0.000000 1.000000 1.000000
0.000000 1.000000 0.500000
1.000000 -0.500000 -0.500000
1.000000 -0.500000 0.000000
1.000000 -1.000000 0.000000
1.000000 -1.000000 -0.500000
1.000000 0.500000 -0.500000
1.000000 0.500000 0.000000
1.000000 0.000000 0.000000
1.000000 0.000000 -0.500000
1.000000 0.500000 0.500000
1.000000 0.500000 1.000000
1.000000 0.000000 1.000000
1.000000 0.000000 0.500000
-0.500000 -0.500000 -1.000000
0.000000 -0.500000 -1.000000
0.000000 -1.000000 -1.000000
-0.500000 -1.000000 -1.000000
-0.500000 0.500000 -1.000000
0.000000 0.500000 -1.000000
0.000000 0.000000 -1.000000
-0.500000 0.000000 -1.000000
0.500000 0.500000 -1.000000
1.000000 0.500000 -1.000000
1.000000 0.000000 -1.000000
0.500000 0.000000 -1.000000
-1.000000 0.500000 -0.500000
-1.000000 0.500000 0.000000
-1.000000 1.000000 0.000000
-1.000000 1.000000 -0.500000
-1.000000 -0.500000 -0.500000
-1.000000 -0.500000 0.000000
-1.000000 0.000000 0.000000
-1.000000 0.000000 -0.500000
-1.000000 -0.500000 0.500000
-1.000000 0.000000 1.000000
-1.000000 0.000000 0.500000
-0.500000 -1.000000 -0.500000
-0.500000 -1.000000 0.000000
-1.000000 -1.000000 0.000000
-1.000000 -1.000000 -0.500000
0.500000 -1.000000 -0.500000
0.500000 -1.000000 0.000000
0.000000 -1.000000 0.000000
0.000000 -1.000000 -0.500000
0.500000 -1.000000 0.500000
0.500000 -1.000000 1.000000
0.000000 -1.000000 1.000000
0.000000 -1.000000 0.500000
0.500000 -0.500000 1.000000
0.000000 -0.500000 1.000000
0.500000 0.500000 1.000000
0.000000 0.500000 1.000000
0.000000 0.000000 1.000000
0.500000 0.000000 1.000000
-0.500000 0.500000 1.000000
-0.500000 0.000000 1.000000
-1.000000 -1.000000 -1.000000
-1.000000 -0.500000 -1.000000
-1.000000 0.000000 -1.000000
-1.000000 0.500000 -1.000000
-1.000000 1.000000 -1.000000
0.000000 1.000000 -1.000000
0.500000 1.000000 -1.000000
1.000000 1.000000 -1.000000
-0.500000 1.000000 -1.000000
4 0 1 2 3
4 4 3 2 5
4 6 7 8 9
4 10 11 12 13
4 14 15 16 17
4 18 19 20 21
4 22 23 24 25
4 26 27 28 29
4 30 31 32 33
4 34 35 36 37
4 38 39 40 41
4 42 43 44 45
4 46 47 48 49
4 50 51 52 53
4 54 55 56 57
4 58 59 60 61
4 62 63 64 65
4 66 1 67 68
4 69 70 71 72
4 73 74 75 76
4 77 78 79 80
4 81 82 79 78
4 83 84 85 86
4 87 7 67 88
4 84 87 88 85
4 32 31 87 84
4 31 8 7 87
4 43 83 86 44
4 20 19 83 43
4 19 32 84 83
4 15 81 78 16
4 44 86 81 15
4 86 85 82 81
4 74 77 80 75
4 36 17 77 74
4 17 16 78 77
4 13 73 76 48
4 12 37 73 13
4 37 36 74 73
4 49 69 72 89
4 48 76 69 49
4 76 75 70 69
4 63 66 68 64
4 71 5 66 63
4 5 2 1 66
4 90 62 65 91
4 89 72 62 90
4 72 71 63 62
4 92 58 61 93
4 91 65 58 92
4 65 64 59 58
4 51 54 57 52
4 94 95 54 51
4 95 96 55 54
4 92 50 53 91
4 93 97 50 92
4 97 94 51 50
4 90 46 49 89
4 91 53 46 90
4 53 52 47 46
4 39 42 45 40
4 24 21 42 39
4 21 20 43 42
4 55 38 41 56
4 96 25 38 55
4 25 24 39 38
4 11 34 37 12
4 56 41 34 11
4 41 40 35 34
4 27 30 33 28
4 60 9 30 27
4 9 8 31 30
4 97 26 29 94
4 93 61 26 97
4 61 60 27 26
4 95 22 25 96
4 94 29 22 95
4 29 28 23 22
4 23 18 21 24
4 28 33 18 23
4 33 32 19 18
4 35 14 17 36
4 40 45 14 35
4 45 44 15 14
4 47 10 13 48
4 52 57 10 47
4 57 56 11 10
4 59 6 9 60
4 64 68 6 59
4 68 67 7 6
4 70 4 5 71
4 75 80 4 70
4 80 79 3 4
4 82 0 3 79
4 85 88 0 82
4 88 67 1 0
