ply
format ascii 1.0
comment Created by Blender 2.93.1 - www.blender.org
element vertex 41
property float x
property float y
property float z
element face 39
property list uchar uint vertex_indices
end_header
0.036621 0.028132 1.891066
0.000295 -0.030576 1.743602
0.036879 -0.106923 1.858890
0.016929 -0.035944 1.989515
-0.112780 -0.092167 1.584009
0.095555 -0.194039 1.714580
-0.039909 0.040667 1.637607
0.089689 0.096200 1.773302
0.092976 0.015912 2.111101
0.003375 0.072912 2.052467
0.123273 -0.008592 1.510518
-0.012276 -0.050070 1.359509
0.057018 -0.145195 1.372557
-0.073559 0.158567 1.614703
-0.083537 0.099654 1.523170
-0.115273 0.000183 2.212676
-0.110378 0.045544 2.222352
0.005453 -0.035426 2.158782
-0.070688 0.086200 2.237385
0.018813 -0.094798 2.088043
-0.104519 -0.085240 2.207590
-0.075615 0.001478 2.200396
0.018459 0.019462 1.413265
0.048004 0.056311 1.418015
0.030890 0.048550 1.397146
-0.037325 0.052146 1.462271
0.017496 0.086609 1.420733
0.085264 0.153422 1.949363
0.027336 0.212521 2.189892
0.017008 0.134753 1.382568
0.014592 -0.143494 2.236599
-0.003860 0.198922 1.402177
0.008060 -0.398623 1.891507
0.019344 -0.252684 2.141431
-0.060630 -0.179036 1.985408
0.097402 -0.257233 1.863832
-0.117986 0.238793 1.766079
-0.000000 0.299793 1.950661
0.000000 0.497353 1.639992
0.000000 0.366429 1.473259
0.000000 -0.349035 1.541740
4 0 1 2 3
4 4 5 2 1
4 6 1 0 7
4 8 9 0 3
4 4 1 6 10
4 4 10 11 12
4 6 7 13 14
4 15 16 8 17
4 18 9 8 16
4 8 3 19 17
4 20 21 15 17
4 22 23 24 11
4 22 11 10 25
4 22 25 26 23
4 7 0 9 27
4 27 9 18 28
4 14 25 10 6
4 25 14 29 26
4 20 17 19 30
4 14 13 31 29
4 32 33 34 35
4 3 2 34 19
4 34 33 30 19
4 5 35 34 2
4 36 13 7 27
4 28 37 36 27
4 38 39 36 37
4 40 32 35 5
4 39 31 13 36
4 5 4 12 40
4 11 31 39 12
4 12 39 38 40
4 40 38 37 32
4 32 37 28 33
4 33 28 18 30
4 30 18 21 20
4 21 18 16 15
4 31 11 24 29
4 29 24 23 26
