ply
format ascii 1.0
comment Created by Blender 2.93.1 - www.blender.org
element vertex 158
property float x
property float y
property float z
element face 156
property list uchar uint vertex_indices
end_header
0.136419 -0.045026 1.870768
0.040981 -0.083451 1.801246
0.056393 -0.128693 1.858890
-0.028494 -0.086632 1.924203
0.017034 -0.127511 1.725271
0.025679 -0.180316 1.786735
0.058783 0.037857 1.761395
0.073179 -0.003420 1.817334
0.024889 0.031369 1.891066
0.106924 0.071705 1.832184
0.093459 0.022032 2.011037
0.028480 0.057905 1.971766
0.106320 -0.006601 1.940290
0.024798 -0.028836 1.618934
-0.037440 0.004008 1.690605
-0.042467 0.046225 1.637607
-0.003784 0.017035 1.574063
0.014390 -0.089680 1.456648
0.095393 -0.036733 1.435013
-0.008444 -0.061312 1.359509
0.043812 -0.117681 1.366033
-0.119024 0.115089 1.637195
0.088857 0.148999 1.694003
-0.041362 0.185956 1.614703
-0.047845 0.151045 1.568936
0.016124 0.005795 2.176228
0.075165 0.034446 2.166726
0.093502 0.016887 2.111101
0.031459 -0.013535 2.134941
0.109887 0.063381 2.155826
-0.007055 0.050664 2.081784
0.103270 -0.046491 2.086860
0.030885 -0.079447 2.038779
-0.033077 -0.114323 2.088043
0.047245 -0.079140 2.123412
-0.128148 -0.037231 2.194861
-0.000000 -0.001228 2.306669
-0.115721 -0.001754 2.212676
-0.064968 -0.022856 2.185729
0.017711 0.020029 1.396984
0.049147 0.060167 1.407581
0.044712 0.055568 1.397146
0.001569 -0.002872 1.378327
-0.003935 0.001864 1.436391
0.126986 -0.012155 1.510518
0.023332 0.023838 1.486395
0.025228 0.061591 1.428571
-0.041050 0.080252 1.441502
0.013790 0.100674 1.420733
0.021712 0.082720 1.419374
0.079656 0.101928 1.916550
-0.000005 0.084441 2.052467
0.061030 0.132150 2.000915
0.016802 0.153597 2.107277
0.124761 0.092315 2.144926
-0.050432 0.100189 2.237385
-0.015224 0.175045 2.213639
-0.031604 0.052509 1.533392
-0.041710 0.108593 1.447186
-0.023374 0.136933 1.452869
0.031253 0.157732 1.382568
0.008181 0.129203 1.401651
0.040290 -0.108328 2.172753
0.100855 -0.143179 2.162321
0.050479 0.173401 1.480654
0.051207 0.209869 1.508440
0.063372 0.233783 1.402177
0.000000 0.216290 1.349615
0.041123 -0.324210 1.970545
0.065913 -0.257800 2.063420
-0.066071 -0.214158 1.985408
0.041919 -0.260496 1.924620
-0.155030 -0.125436 1.980464
0.008904 -0.171425 1.922149
-0.078169 -0.164240 2.036726
-0.044841 -0.200490 2.112870
0.008845 -0.236739 2.189015
-0.045098 -0.172035 2.236599
0.076473 -0.220406 1.855678
-0.000579 0.189723 1.775862
0.052433 0.112042 1.773302
-0.009156 0.145950 1.861333
0.089695 0.280151 1.969986
-0.095603 0.345423 1.870344
-0.059416 0.281037 1.766079
-0.108287 0.230448 1.857721
-0.130661 0.382623 1.731691
0.060683 0.331794 1.638386
-0.117342 -0.350245 1.757259
-0.007957 -0.390619 1.877670
0.103364 -0.306834 1.863832
-0.005458 -0.269386 1.789206
-0.088780 0.270832 1.573413
-0.046739 0.233496 1.690391
-0.117133 -0.226249 1.557565
-0.047948 -0.142627 1.478283
0.000000 -0.148525 1.435244
0.000000 -0.234128 1.521504
-0.042331 0.095243 1.411234
-0.058623 0.308167 1.456435
0.113948 0.382552 1.510693
0.040814 0.104251 1.441625
0.056829 0.069448 1.529437
-0.055600 0.419822 1.593039
0.000000 0.535603 1.653982
0.071269 0.034645 1.617250
-0.018588 0.001174 1.775154
0.029648 0.433451 1.824997
0.080873 0.409810 1.974609
-0.052099 -0.032297 1.933058
-0.151986 -0.029034 2.049360
-0.124842 0.329855 2.082251
-0.022418 0.249900 2.189892
-0.002367 -0.025772 2.165662
0.144543 -0.030847 2.201327
-0.083711 -0.035923 2.236992
-0.141148 -0.043765 2.220493
-0.099835 0.049985 2.218890
-0.078506 -0.000220 2.200396
-0.131588 -0.051607 2.203993
0.103611 0.037555 2.218202
0.069310 0.076097 2.229868
-0.107507 0.052005 2.222352
-0.117667 0.025126 2.217514
0.081705 0.096443 1.385350
0.071859 0.106650 1.389857
0.052564 0.094685 1.404616
0.044438 0.064766 1.418015
-0.063971 0.086236 1.380843
0.053749 -0.137515 2.222095
-0.029043 -0.102995 2.207590
0.070507 -0.301443 2.141431
0.041440 -0.387924 2.016469
-0.000000 -0.466596 1.890001
0.000000 -0.349925 1.739374
0.000000 -0.412342 1.543873
-0.070527 -0.309871 1.636848
0.100289 -0.231939 1.714580
0.026799 -0.171571 1.649295
-0.114935 -0.111204 1.584009
0.063815 0.214879 2.069628
-0.006119 0.179858 1.949363
-0.007896 -0.044571 1.989515
-0.100914 0.116134 1.523170
-0.063995 -0.073476 2.183186
0.005523 -0.043957 2.158782
-0.061528 0.059830 1.462271
-0.080576 0.087982 1.492720
-0.058288 0.081180 1.580388
0.040967 0.042930 1.415640
0.019962 0.021095 1.413265
0.016390 0.040462 1.437768
-0.022287 -0.020109 1.386387
0.162379 -0.013842 2.050308
-0.056302 0.079134 1.705455
-0.046084 -0.061679 1.547264
0.014902 -0.074707 1.663805
0.007262 -0.038209 1.743602
4 0 1 2 3
4 4 5 2 1
4 6 7 8 9
4 10 11 8 12
4 13 14 15 16
4 17 18 19 20
4 21 22 23 24
4 25 26 27 28
4 29 30 27 26
4 31 32 33 34
4 35 36 37 38
4 39 40 41 42
4 43 18 44 45
4 46 47 48 49
4 50 11 51 52
4 53 54 55 56
4 57 45 44 16
4 58 59 60 61
4 62 34 33 63
4 64 65 66 67
4 68 69 70 71
4 72 73 70 74
4 75 76 77 63
4 78 71 70 73
4 79 22 80 81
4 82 83 84 85
4 86 87 84 83
4 88 89 90 91
4 92 65 23 93
4 94 95 96 97
4 98 99 100 101
4 102 103 104 105
4 106 107 108 109
4 110 111 112 113
4 114 56 55 115
4 116 117 118 119
4 120 121 122 123
4 124 42 41 125
4 126 40 127 49
4 61 126 49 48
4 60 125 126 61
4 125 41 40 126
4 67 124 125 60
4 66 128 124 67
4 128 19 42 124
4 36 120 123 37
4 118 117 120 36
4 117 55 121 120
4 129 116 119 130
4 77 115 116 129
4 115 55 117 116
4 76 114 115 77
4 131 113 114 76
4 113 112 56 114
4 132 110 113 131
4 133 109 110 132
4 109 108 111 110
4 134 106 109 133
4 135 105 106 134
4 105 104 107 106
4 97 102 105 135
4 96 101 102 97
4 101 100 103 102
4 20 98 101 96
4 19 128 98 20
4 128 66 99 98
4 136 94 97 135
4 137 138 94 136
4 138 139 95 94
4 87 92 93 84
4 100 99 92 87
4 99 66 65 92
4 136 88 91 137
4 135 134 88 136
4 134 133 89 88
4 107 86 83 108
4 104 103 86 107
4 103 100 87 86
4 140 82 85 141
4 112 111 82 140
4 111 108 83 82
4 85 79 81 141
4 84 93 79 85
4 93 23 22 79
4 5 78 73 2
4 137 91 78 5
4 91 90 71 78
4 74 75 63 33
4 70 69 75 74
4 69 131 76 75
4 32 72 74 33
4 142 3 72 32
4 3 2 73 72
4 89 68 71 90
4 133 132 68 89
4 132 131 69 68
4 59 64 67 60
4 143 24 64 59
4 24 23 65 64
4 129 62 63 77
4 130 144 62 129
4 144 145 34 62
4 47 58 61 48
4 146 147 58 47
4 147 143 59 58
4 148 57 16 15
4 143 147 57 148
4 147 146 45 57
4 140 53 56 112
4 141 52 53 140
4 52 51 54 53
4 81 50 52 141
4 80 9 50 81
4 9 8 11 50
4 149 46 49 127
4 150 151 46 149
4 151 146 47 46
4 151 43 45 146
4 150 152 43 151
4 152 19 18 43
4 152 39 42 19
4 150 149 39 152
4 149 127 40 39
4 144 35 38 145
4 130 119 35 144
4 119 118 36 35
4 28 31 34 145
4 27 153 31 28
4 153 142 32 31
4 121 29 26 122
4 55 54 29 121
4 54 51 30 29
4 38 25 28 145
4 37 123 25 38
4 123 122 26 25
4 148 21 24 143
4 15 154 21 148
4 154 80 22 21
4 95 17 20 96
4 139 155 17 95
4 155 44 18 17
4 155 13 16 44
4 139 156 13 155
4 156 157 14 13
4 153 10 12 142
4 27 30 10 153
4 30 51 11 10
4 154 6 9 80
4 15 14 6 154
4 14 157 7 6
4 156 4 1 157
4 139 138 4 156
4 138 137 5 4
4 12 0 3 142
4 8 7 0 12
4 7 157 1 0
