ply
format ascii 1.0
comment Created by Blender 2.93.1 - www.blender.org
element vertex 220
property float x
property float y
property float z
element face 206
property list uchar uint vertex_indices
end_header
0.110830 0.006687 0.622056
0.118560 0.011503 0.517457
0.085220 0.038657 0.486615
0.089307 0.042886 0.623573
0.111179 0.006968 0.328408
0.078099 0.030795 0.326146
-0.081819 0.038629 0.473083
-0.102548 0.001670 0.478506
-0.105952 0.003919 0.667246
-0.078103 0.034380 0.634542
-0.100567 0.000375 0.769429
-0.073500 0.029349 0.771380
-0.043377 0.066696 0.472500
-0.042212 0.061306 0.313274
-0.081411 0.037914 0.308350
-0.041828 0.061281 0.628132
-0.092633 -0.004801 0.303327
-0.040971 0.055258 0.154889
0.001694 0.048516 0.157362
0.001543 0.046584 -0.001537
-0.040413 0.050930 -0.000390
-0.096215 0.052579 0.004885
-0.084044 0.039996 0.146098
0.002173 0.070796 0.316166
0.038011 0.032134 0.158599
0.040626 0.040050 -0.002125
0.042594 0.048738 0.319791
0.068285 0.019198 0.160628
0.074565 0.025867 -0.003904
0.002264 0.059653 0.472935
-0.106607 0.003916 0.120193
-0.112144 -0.001624 0.041549
0.106007 0.003267 0.160254
0.098260 -0.004219 -0.001222
0.004406 0.073112 1.400291
0.003819 0.066737 1.241838
-0.040727 0.063513 1.238356
-0.040368 0.064231 1.400106
0.043017 0.044662 1.244428
0.046924 0.060255 1.086138
0.003143 0.061249 1.083760
0.044932 0.048401 1.398478
-0.043016 0.070537 1.078820
-0.073246 0.032374 1.231192
-0.083694 0.047761 1.400121
0.002602 0.062555 0.775705
0.002824 0.061118 0.927871
0.047077 0.061539 0.927382
0.048134 0.065247 0.772238
-0.039818 0.054005 0.775549
0.002516 0.062844 0.625702
0.043154 0.049518 0.476113
0.046363 0.059471 0.624542
-0.039071 0.052385 0.923329
-0.080166 0.038278 0.908026
0.067266 0.016507 1.251634
0.086203 0.039017 1.088404
0.091684 0.045648 0.922829
0.095297 -0.002857 1.096117
0.111044 0.006805 0.918398
0.107924 0.004887 0.727131
0.096970 0.051646 0.760849
0.092946 -0.004861 1.282223
-0.083269 0.043842 1.068414
-0.078961 -0.014962 1.222933
-0.088043 -0.002822 1.373454
0.071970 0.017654 1.396555
0.093281 -0.018645 1.360893
-0.086884 -0.008929 1.058103
-0.101862 0.001246 0.871536
0.285714 -0.045677 2.086166
0.400000 -0.097394 2.086166
0.400000 0.007974 2.200451
0.285714 0.008913 2.200451
-0.400000 -0.099700 2.086166
-0.285714 -0.039798 2.086166
-0.285714 0.014216 2.200451
-0.400000 0.081667 2.200451
-0.171429 0.080604 2.086166
-0.171429 0.002160 2.200451
-0.057143 -0.020828 2.086166
-0.057143 0.007646 2.200451
0.057143 0.098247 2.086166
0.057143 -0.141794 2.200451
0.171429 -0.058976 2.086166
0.171429 0.048041 2.200451
-0.400000 0.023793 1.400451
-0.285714 0.069361 1.400451
-0.285714 -0.015853 1.514737
-0.400000 0.118396 1.514737
-0.285714 -0.070244 1.629023
-0.400000 -0.043116 1.629023
-0.285714 -0.128900 1.743309
-0.400000 -0.059513 1.743309
-0.285714 0.094056 1.857594
-0.400000 -0.027950 1.857594
-0.285714 0.095544 1.971880
-0.400000 -0.073607 1.971880
-0.171429 -0.015575 1.400451
-0.171429 0.008201 1.514737
-0.171429 -0.027405 1.629023
-0.171429 0.141984 1.743309
-0.171429 -0.093316 1.857594
-0.171429 0.032640 1.971880
-0.057143 0.053419 1.400451
-0.057143 -0.088327 1.514737
-0.057143 -0.066589 1.629023
-0.057143 0.047769 1.743309
-0.057143 0.070271 1.857594
-0.057143 0.032487 1.971880
0.057143 -0.012318 1.400451
0.057143 0.049429 1.514737
0.057143 -0.015642 1.629023
0.057143 0.014809 1.743309
0.057143 0.168188 1.857594
0.057143 -0.090395 1.971880
0.171429 0.134140 1.400451
0.171429 -0.080915 1.514737
0.171429 -0.023384 1.629023
0.171429 0.008557 1.743309
0.171429 0.106204 1.857594
0.171429 -0.045833 1.971880
0.285714 -0.053145 1.400451
0.285714 -0.023615 1.514737
0.285714 -0.045334 1.629023
0.285714 0.011393 1.743309
0.285714 0.124354 1.857594
0.285714 -0.016234 1.971880
0.400000 -0.134872 1.400451
0.400000 -0.005672 1.514737
0.400000 -0.050603 1.629023
0.400000 -0.040980 1.743309
0.400000 -0.013980 1.857594
0.400000 0.035844 1.971880
-0.408857 0.026869 1.397688
-0.306643 -0.030330 1.397688
-0.357750 -0.008763 1.486208
-0.051107 0.067241 2.017329
0.051107 -0.085553 2.017329
0.000000 -0.052048 2.105849
-0.102214 0.004923 1.928809
0.000000 0.061324 1.928809
-0.153321 0.009359 1.840289
-0.051107 0.074626 1.840289
-0.204428 -0.074862 1.751769
-0.102214 0.066096 1.751769
-0.255536 0.018774 1.663248
-0.153321 -0.056814 1.663248
-0.306643 -0.089026 1.574728
-0.204428 -0.027063 1.574728
-0.255536 -0.080696 1.486208
0.102214 0.010179 1.928809
0.051107 0.014662 1.840289
0.153321 -0.078214 1.840289
0.000000 0.129280 1.751769
0.102214 -0.018495 1.751769
0.204428 0.035366 1.751769
-0.051107 0.081569 1.663248
0.051107 0.095835 1.663248
0.153321 0.063955 1.663248
0.255536 0.037938 1.663248
-0.102214 0.071997 1.574728
0.000000 0.001610 1.574728
0.102214 0.028706 1.574728
0.204428 0.041938 1.574728
0.306643 -0.066420 1.574728
-0.153321 -0.012636 1.486208
-0.051107 -0.028480 1.486208
0.051107 -0.023045 1.486208
0.153321 0.049932 1.486208
0.255536 0.048735 1.486208
0.357750 -0.064741 1.486208
-0.204428 -0.052016 1.397688
-0.102214 -0.097134 1.397688
0.000000 0.030084 1.397688
0.102214 -0.099454 1.397688
0.204428 -0.080595 1.397688
0.306643 -0.054003 1.397688
0.408857 0.001157 1.397688
-0.028132 0.036621 1.891066
0.030576 0.000295 1.743602
0.106923 0.036879 1.858890
0.035944 0.016929 1.989515
0.092167 -0.112780 1.584009
0.194039 0.095555 1.714580
-0.040667 -0.039909 1.637607
-0.096200 0.089689 1.773302
-0.015912 0.092976 2.111101
-0.072912 0.003375 2.052467
0.008592 0.123273 1.510518
0.050070 -0.012276 1.359509
0.145195 0.057018 1.372557
-0.158567 -0.073559 1.614703
-0.099654 -0.083537 1.523170
-0.000183 -0.115273 2.212676
-0.045544 -0.110378 2.222352
0.035426 0.005453 2.158782
-0.086200 -0.070688 2.237385
0.094798 0.018813 2.088043
0.085240 -0.104519 2.207590
-0.001478 -0.075615 2.200396
-0.019462 0.018459 1.413265
-0.056311 0.048004 1.418015
-0.048550 0.030890 1.397146
-0.052146 -0.037325 1.462271
-0.086609 0.017496 1.420733
-0.153422 0.085264 1.949363
-0.212521 0.027336 2.189892
-0.134753 0.017008 1.382568
0.143494 0.014592 2.236599
-0.198922 -0.003860 1.402177
0.398623 0.008060 1.891507
0.252684 0.019344 2.141431
0.179036 -0.060630 1.985408
0.257233 0.097402 1.863832
-0.238793 -0.117986 1.766079
-0.299793 -0.000000 1.950661
-0.497353 0.000000 1.639992
-0.366429 0.000000 1.473259
0.349035 0.000000 1.541740
4 0 1 2 3
4 4 5 2 1
4 6 7 8 9
4 8 10 11 9
4 6 12 13 14
4 15 12 6 9
4 6 14 16 7
4 17 18 19 20
4 21 22 17 20
4 17 13 23 18
4 18 24 25 19
4 18 23 26 24
4 24 27 28 25
4 13 17 22 14
4 29 23 13 12
4 30 22 21 31
4 16 14 22 30
4 28 27 32 33
4 26 5 27 24
4 27 5 4 32
4 34 35 36 37
4 35 38 39 40
4 41 38 35 34
4 35 40 42 36
4 36 43 44 37
4 45 46 47 48
4 49 45 50 15
4 51 29 50 52
4 48 52 50 45
4 49 53 46 45
4 54 53 49 11
4 15 50 29 12
4 29 51 26 23
4 15 9 11 49
4 5 26 51 2
4 3 2 51 52
4 46 40 39 47
4 46 53 42 40
4 55 56 39 38
4 57 56 58 59
4 57 59 60 61
4 47 39 56 57
4 55 62 58 56
4 42 63 43 36
4 43 64 65 44
4 38 41 66 55
4 62 55 66 67
4 60 0 3 61
4 54 63 42 53
4 47 57 61 48
4 68 63 54 69
4 64 43 63 68
4 69 54 11 10
4 61 3 52 48
4 70 71 72 73
4 74 75 76 77
4 75 78 79 76
4 78 80 81 79
4 80 82 83 81
4 82 84 85 83
4 84 70 73 85
4 86 87 88 89
4 89 88 90 91
4 91 90 92 93
4 93 92 94 95
4 95 94 96 97
4 97 96 75 74
4 87 98 99 88
4 88 99 100 90
4 90 100 101 92
4 92 101 102 94
4 94 102 103 96
4 96 103 78 75
4 98 104 105 99
4 99 105 106 100
4 100 106 107 101
4 101 107 108 102
4 102 108 109 103
4 103 109 80 78
4 104 110 111 105
4 105 111 112 106
4 106 112 113 107
4 107 113 114 108
4 108 114 115 109
4 109 115 82 80
4 110 116 117 111
4 111 117 118 112
4 112 118 119 113
4 113 119 120 114
4 114 120 121 115
4 115 121 84 82
4 116 122 123 117
4 117 123 124 118
4 118 124 125 119
4 119 125 126 120
4 120 126 127 121
4 121 127 70 84
4 122 128 129 123
4 123 129 130 124
4 124 130 131 125
4 125 131 132 126
4 126 132 133 127
4 127 133 71 70
3 134 135 136
3 137 138 139
3 140 141 137
3 142 143 140
3 144 145 142
3 146 147 144
3 148 149 146
3 136 150 148
3 137 141 138
3 141 151 138
3 140 143 141
3 143 152 141
3 141 152 151
3 152 153 151
3 142 145 143
3 145 154 143
3 143 154 152
3 154 155 152
3 152 155 153
3 155 156 153
3 144 147 145
3 147 157 145
3 145 157 154
3 157 158 154
3 154 158 155
3 158 159 155
3 155 159 156
3 159 160 156
3 146 149 147
3 149 161 147
3 147 161 157
3 161 162 157
3 157 162 158
3 162 163 158
3 158 163 159
3 163 164 159
3 159 164 160
3 164 165 160
3 148 150 149
3 150 166 149
3 149 166 161
3 166 167 161
3 161 167 162
3 167 168 162
3 162 168 163
3 168 169 163
3 163 169 164
3 169 170 164
3 164 170 165
3 170 171 165
3 136 135 150
3 135 172 150
3 150 172 166
3 172 173 166
3 166 173 167
3 173 174 167
3 167 174 168
3 174 175 168
3 168 175 169
3 175 176 169
3 169 176 170
3 176 177 170
3 170 177 171
3 177 178 171
4 179 180 181 182
4 183 184 181 180
4 185 180 179 186
4 187 188 179 182
4 183 180 185 189
4 183 189 190 191
4 185 186 192 193
4 194 195 187 196
4 197 188 187 195
4 187 182 198 196
4 199 200 194 196
4 201 202 203 190
4 201 190 189 204
4 201 204 205 202
4 186 179 188 206
4 206 188 197 207
4 193 204 189 185
4 204 193 208 205
4 199 196 198 209
4 193 192 210 208
4 211 212 213 214
4 182 181 213 198
4 213 212 209 198
4 184 214 213 181
4 215 192 186 206
4 207 216 215 206
4 217 218 215 216
4 219 211 214 184
4 218 210 192 215
4 184 183 191 219
4 190 210 218 191
4 191 218 217 219
4 219 217 216 211
4 211 216 207 212
4 212 207 197 209
4 209 197 200 199
4 200 197 195 194
4 210 190 203 208
4 208 203 202 205
