ply
format ascii 1.0
comment Created by Blender 2.93.1 - www.blender.org
element vertex 134
property float x
property float y
property float z
element face 103
property list uchar uint vertex_indices
end_header
0.110830 0.006687 0.622056
0.118560 0.011503 0.517457
0.085220 0.038657 0.486615
0.089307 0.042886 0.623573
0.111179 0.006968 0.328408
0.078099 0.030795 0.326146
-0.081819 0.038629 0.473083
-0.102548 0.001670 0.478506
-0.105952 0.003919 0.667246
-0.078103 0.034380 0.634542
-0.100567 0.000375 0.769429
-0.073500 0.029349 0.771380
-0.043377 0.066696 0.472500
-0.042212 0.061306 0.313274
-0.081411 0.037914 0.308350
-0.041828 0.061281 0.628132
-0.092633 -0.004801 0.303327
-0.040971 0.055258 0.154889
0.001694 0.048516 0.157362
0.001543 0.046584 -0.001537
-0.040413 0.050930 -0.000390
-0.096215 0.052579 0.004885
-0.084044 0.039996 0.146098
0.002173 0.070796 0.316166
0.038011 0.032134 0.158599
0.040626 0.040050 -0.002125
0.042594 0.048738 0.319791
0.068285 0.019198 0.160628
0.074565 0.025867 -0.003904
0.002264 0.059653 0.472935
-0.106607 0.003916 0.120193
-0.112144 -0.001624 0.041549
0.106007 0.003267 0.160254
0.098260 -0.004219 -0.001222
0.004406 0.073112 1.400291
0.003819 0.066737 1.241838
-0.040727 0.063513 1.238356
-0.040368 0.064231 1.400106
0.043017 0.044662 1.244428
0.046924 0.060255 1.086138
0.003143 0.061249 1.083760
0.044932 0.048401 1.398478
-0.043016 0.070537 1.078820
-0.073246 0.032374 1.231192
-0.083694 0.047761 1.400121
0.002602 0.062555 0.775705
0.002824 0.061118 0.927871
0.047077 0.061539 0.927382
0.048134 0.065247 0.772238
-0.039818 0.054005 0.775549
0.002516 0.062844 0.625702
0.043154 0.049518 0.476113
0.046363 0.059471 0.624542
-0.039071 0.052385 0.923329
-0.080166 0.038278 0.908026
0.067266 0.016507 1.251634
0.086203 0.039017 1.088404
0.091684 0.045648 0.922829
0.095297 -0.002857 1.096117
0.111044 0.006805 0.918398
0.107924 0.004887 0.727131
0.096970 0.051646 0.760849
0.092946 -0.004861 1.282223
-0.083269 0.043842 1.068414
-0.078961 -0.014962 1.222933
-0.088043 -0.002822 1.373454
0.071970 0.017654 1.396555
0.093281 -0.018645 1.360893
-0.086884 -0.008929 1.058103
-0.101862 0.001246 0.871536
0.285714 -0.013051 2.086166
0.400000 -0.027827 2.086166
0.400000 0.002278 2.200451
0.285714 0.002547 2.200451
-0.400000 -0.028486 2.086166
-0.285714 -0.011371 2.086166
-0.285714 0.004062 2.200451
-0.400000 0.023333 2.200451
-0.171429 0.023030 2.086166
-0.171429 0.000617 2.200451
-0.057143 -0.005951 2.086166
-0.057143 0.002184 2.200451
0.057143 0.028071 2.086166
0.057143 -0.040513 2.200451
0.171429 -0.016850 2.086166
0.171429 0.013726 2.200451
-0.400000 0.006798 1.400451
-0.285714 0.019818 1.400451
-0.285714 -0.004529 1.514737
-0.400000 0.033827 1.514737
-0.285714 -0.020070 1.629023
-0.400000 -0.012319 1.629023
-0.285714 -0.036829 1.743309
-0.400000 -0.017004 1.743309
-0.285714 0.026873 1.857594
-0.400000 -0.007986 1.857594
-0.285714 0.027298 1.971880
-0.400000 -0.021031 1.971880
-0.171429 -0.004450 1.400451
-0.171429 0.002343 1.514737
-0.171429 -0.007830 1.629023
-0.171429 0.040567 1.743309
-0.171429 -0.026662 1.857594
-0.171429 0.009326 1.971880
-0.057143 0.015263 1.400451
-0.057143 -0.025236 1.514737
-0.057143 -0.019025 1.629023
-0.057143 0.013648 1.743309
-0.057143 0.020078 1.857594
-0.057143 0.009282 1.971880
0.057143 -0.003519 1.400451
0.057143 0.014123 1.514737
0.057143 -0.004469 1.629023
0.057143 0.004231 1.743309
0.057143 0.048054 1.857594
0.057143 -0.025827 1.971880
0.171429 0.038326 1.400451
0.171429 -0.023118 1.514737
0.171429 -0.006681 1.629023
0.171429 0.002445 1.743309
0.171429 0.030344 1.857594
0.171429 -0.013095 1.971880
0.285714 -0.015184 1.400451
0.285714 -0.006747 1.514737
0.285714 -0.012953 1.629023
0.285714 0.003255 1.743309
0.285714 0.035530 1.857594
0.285714 -0.004638 1.971880
0.400000 -0.038535 1.400451
0.400000 -0.001621 1.514737
0.400000 -0.014458 1.629023
0.400000 -0.011709 1.743309
0.400000 -0.003994 1.857594
0.400000 0.010241 1.971880
4 0 1 2 3
4 4 5 2 1
4 6 7 8 9
4 8 10 11 9
4 6 12 13 14
4 15 12 6 9
4 6 14 16 7
4 17 18 19 20
4 21 22 17 20
4 17 13 23 18
4 18 24 25 19
4 18 23 26 24
4 24 27 28 25
4 13 17 22 14
4 29 23 13 12
4 30 22 21 31
4 16 14 22 30
4 28 27 32 33
4 26 5 27 24
4 27 5 4 32
4 34 35 36 37
4 35 38 39 40
4 41 38 35 34
4 35 40 42 36
4 36 43 44 37
4 45 46 47 48
4 49 45 50 15
4 51 29 50 52
4 48 52 50 45
4 49 53 46 45
4 54 53 49 11
4 15 50 29 12
4 29 51 26 23
4 15 9 11 49
4 5 26 51 2
4 3 2 51 52
4 46 40 39 47
4 46 53 42 40
4 55 56 39 38
4 57 56 58 59
4 57 59 60 61
4 47 39 56 57
4 55 62 58 56
4 42 63 43 36
4 43 64 65 44
4 38 41 66 55
4 62 55 66 67
4 60 0 3 61
4 54 63 42 53
4 47 57 61 48
4 68 63 54 69
4 64 43 63 68
4 69 54 11 10
4 61 3 52 48
4 70 71 72 73
4 74 75 76 77
4 75 78 79 76
4 78 80 81 79
4 80 82 83 81
4 82 84 85 83
4 84 70 73 85
4 86 87 88 89
4 89 88 90 91
4 91 90 92 93
4 93 92 94 95
4 95 94 96 97
4 97 96 75 74
4 87 98 99 88
4 88 99 100 90
4 90 100 101 92
4 92 101 102 94
4 94 102 103 96
4 96 103 78 75
4 98 104 105 99
4 99 105 106 100
4 100 106 107 101
4 101 107 108 102
4 102 108 109 103
4 103 109 80 78
4 104 110 111 105
4 105 111 112 106
4 106 112 113 107
4 107 113 114 108
4 108 114 115 109
4 109 115 82 80
4 110 116 117 111
4 111 117 118 112
4 112 118 119 113
4 113 119 120 114
4 114 120 121 115
4 115 121 84 82
4 116 122 123 117
4 117 123 124 118
4 118 124 125 119
4 119 125 126 120
4 120 126 127 121
4 121 127 70 84
4 122 128 129 123
4 123 129 130 124
4 124 130 131 125
4 125 131 132 126
4 126 132 133 127
4 127 133 71 70
