ply
format ascii 1.0
comment Created by Blender 2.93.1 - www.blender.org
element vertex 70
property float x
property float y
property float z
element face 54
property list uchar uint vertex_indices
end_header
0.006687 -0.110830 0.622056
0.011503 -0.118560 0.517457
0.038657 -0.085220 0.486615
0.042886 -0.089307 0.623573
0.006968 -0.111179 0.328408
0.030795 -0.078099 0.326146
0.038629 0.081819 0.473083
0.001670 0.102548 0.478506
0.003919 0.105952 0.667246
0.034380 0.078103 0.634542
0.000375 0.100567 0.769429
0.029349 0.073500 0.771380
0.066696 0.043377 0.472500
0.061306 0.042212 0.313274
0.037914 0.081411 0.308350
0.061281 0.041828 0.628132
-0.004801 0.092633 0.303327
0.055258 0.040971 0.154889
0.048516 -0.001694 0.157362
0.046584 -0.001543 -0.001537
0.050930 0.040413 -0.000390
0.052579 0.096215 0.004885
0.039996 0.084044 0.146098
0.070796 -0.002173 0.316166
0.032134 -0.038011 0.158599
0.040050 -0.040626 -0.002125
0.048738 -0.042594 0.319791
0.019198 -0.068285 0.160628
0.025867 -0.074565 -0.003904
0.059653 -0.002264 0.472935
0.003916 0.106607 0.120193
-0.001624 0.112144 0.041549
0.003267 -0.106007 0.160254
-0.004219 -0.098260 -0.001222
0.073112 -0.004406 1.400291
0.066737 -0.003819 1.241838
0.063513 0.040727 1.238356
0.064231 0.040368 1.400106
0.044662 -0.043017 1.244428
0.060255 -0.046924 1.086138
0.061249 -0.003143 1.083760
0.048401 -0.044932 1.398478
0.070537 0.043016 1.078820
0.032374 0.073246 1.231192
0.047761 0.083694 1.400121
0.062555 -0.002602 0.775705
0.061118 -0.002824 0.927871
0.061539 -0.047077 0.927382
0.065247 -0.048134 0.772238
0.054005 0.039818 0.775549
0.062844 -0.002516 0.625702
0.049518 -0.043154 0.476113
0.059471 -0.046363 0.624542
0.052385 0.039071 0.923329
0.038278 0.080166 0.908026
0.016507 -0.067266 1.251634
0.039017 -0.086203 1.088404
0.045648 -0.091684 0.922829
-0.002857 -0.095297 1.096117
0.006805 -0.111044 0.918398
0.004887 -0.107924 0.727131
0.051646 -0.096970 0.760849
-0.004861 -0.092946 1.282223
0.043842 0.083269 1.068414
-0.014962 0.078961 1.222933
-0.002822 0.088043 1.373454
0.017654 -0.071970 1.396555
-0.018645 -0.093281 1.360893
-0.008929 0.086884 1.058103
0.001246 0.101862 0.871536
4 0 1 2 3
4 4 5 2 1
4 6 7 8 9
4 8 10 11 9
4 6 12 13 14
4 15 12 6 9
4 6 14 16 7
4 17 18 19 20
4 21 22 17 20
4 17 13 23 18
4 18 24 25 19
4 18 23 26 24
4 24 27 28 25
4 13 17 22 14
4 29 23 13 12
4 30 22 21 31
4 16 14 22 30
4 28 27 32 33
4 26 5 27 24
4 27 5 4 32
4 34 35 36 37
4 35 38 39 40
4 41 38 35 34
4 35 40 42 36
4 36 43 44 37
4 45 46 47 48
4 49 45 50 15
4 51 29 50 52
4 48 52 50 45
4 49 53 46 45
4 54 53 49 11
4 15 50 29 12
4 29 51 26 23
4 15 9 11 49
4 5 26 51 2
4 3 2 51 52
4 46 40 39 47
4 46 53 42 40
4 55 56 39 38
4 57 56 58 59
4 57 59 60 61
4 47 39 56 57
4 55 62 58 56
4 42 63 43 36
4 43 64 65 44
4 38 41 66 55
4 62 55 66 67
4 60 0 3 61
4 54 63 42 53
4 47 57 61 48
4 68 63 54 69
4 64 43 63 68
4 69 54 11 10
4 61 3 52 48
