ply
format ascii 1.0
comment Created by Blender 2.93.1 - www.blender.org
element vertex 64
property float x
property float y
property float z
element face 49
property list uchar uint vertex_indices
end_header
-0.045677 -0.285714 2.086166
-0.097394 -0.400000 2.086166
0.007974 -0.400000 2.200451
0.008913 -0.285714 2.200451
-0.099700 0.400000 2.086166
-0.039798 0.285714 2.086166
0.014216 0.285714 2.200451
0.081667 0.400000 2.200451
0.080604 0.171429 2.086166
0.002160 0.171429 2.200451
-0.020828 0.057143 2.086166
0.007646 0.057143 2.200451
0.098247 -0.057143 2.086166
-0.141794 -0.057143 2.200451
-0.058976 -0.171429 2.086166
0.048041 -0.171429 2.200451
0.023793 0.400000 1.400451
0.069361 0.285714 1.400451
-0.015853 0.285714 1.514737
0.118396 0.400000 1.514737
-0.070244 0.285714 1.629023
-0.043116 0.400000 1.629023
-0.128900 0.285714 1.743309
-0.059513 0.400000 1.743309
0.094056 0.285714 1.857594
-0.027950 0.400000 1.857594
0.095544 0.285714 1.971880
-0.073607 0.400000 1.971880
-0.015575 0.171429 1.400451
0.008201 0.171429 1.514737
-0.027405 0.171429 1.629023
0.141984 0.171429 1.743309
-0.093316 0.171429 1.857594
0.032640 0.171429 1.971880
0.053419 0.057143 1.400451
-0.088327 0.057143 1.514737
-0.066589 0.057143 1.629023
0.047769 0.057143 1.743309
0.070271 0.057143 1.857594
0.032487 0.057143 1.971880
-0.012318 -0.057143 1.400451
0.049429 -0.057143 1.514737
-0.015642 -0.057143 1.629023
0.014809 -0.057143 1.743309
0.168188 -0.057143 1.857594
-0.090395 -0.057143 1.971880
0.134140 -0.171429 1.400451
-0.080915 -0.171429 1.514737
-0.023384 -0.171429 1.629023
0.008557 -0.171429 1.743309
0.106204 -0.171429 1.857594
-0.045833 -0.171429 1.971880
-0.053145 -0.285714 1.400451
-0.023615 -0.285714 1.514737
-0.045334 -0.285714 1.629023
0.011393 -0.285714 1.743309
0.124354 -0.285714 1.857594
-0.016234 -0.285714 1.971880
-0.134872 -0.400000 1.400451
-0.005672 -0.400000 1.514737
-0.050603 -0.400000 1.629023
-0.040980 -0.400000 1.743309
-0.013980 -0.400000 1.857594
0.035844 -0.400000 1.971880
4 0 1 2 3
4 4 5 6 7
4 5 8 9 6
4 8 10 11 9
4 10 12 13 11
4 12 14 15 13
4 14 0 3 15
4 16 17 18 19
4 19 18 20 21
4 21 20 22 23
4 23 22 24 25
4 25 24 26 27
4 27 26 5 4
4 17 28 29 18
4 18 29 30 20
4 20 30 31 22
4 22 31 32 24
4 24 32 33 26
4 26 33 8 5
4 28 34 35 29
4 29 35 36 30
4 30 36 37 31
4 31 37 38 32
4 32 38 39 33
4 33 39 10 8
4 34 40 41 35
4 35 41 42 36
4 36 42 43 37
4 37 43 44 38
4 38 44 45 39
4 39 45 12 10
4 40 46 47 41
4 41 47 48 42
4 42 48 49 43
4 43 49 50 44
4 44 50 51 45
4 45 51 14 12
4 46 52 53 47
4 47 53 54 48
4 48 54 55 49
4 49 55 56 50
4 50 56 57 51
4 51 57 0 14
4 52 58 59 53
4 53 59 60 54
4 54 60 61 55
4 55 61 62 56
4 56 62 63 57
4 57 63 1 0
