ply
format ascii 1.0
comment Created by Blender 2.93.1 - www.blender.org
element vertex 45
property float x
property float y
property float z
element face 64
property list uchar uint vertex_indices
end_header
0.026869 0.408857 1.397688
-0.030330 0.306643 1.397688
-0.008763 0.357750 1.486208
0.067241 0.051107 2.017329
-0.085553 -0.051107 2.017329
-0.052048 0.000000 2.105849
0.004923 0.102214 1.928809
0.061324 -0.000000 1.928809
0.009359 0.153321 1.840289
0.074626 0.051107 1.840289
-0.074862 0.204428 1.751769
0.066096 0.102214 1.751769
0.018774 0.255536 1.663248
-0.056814 0.153321 1.663248
-0.089026 0.306643 1.574728
-0.027063 0.204428 1.574728
-0.080696 0.255536 1.486208
0.010179 -0.102214 1.928809
0.014662 -0.051107 1.840289
-0.078214 -0.153321 1.840289
0.129280 -0.000000 1.751769
-0.018495 -0.102214 1.751769
0.035366 -0.204428 1.751769
0.081569 0.051107 1.663248
0.095835 -0.051107 1.663248
0.063955 -0.153321 1.663248
0.037938 -0.255536 1.663248
0.071997 0.102214 1.574728
0.001610 -0.000000 1.574728
0.028706 -0.102214 1.574728
0.041938 -0.204428 1.574728
-0.066420 -0.306643 1.574728
-0.012636 0.153321 1.486208
-0.028480 0.051107 1.486208
-0.023045 -0.051107 1.486208
0.049932 -0.153321 1.486208
0.048735 -0.255536 1.486208
-0.064741 -0.357750 1.486208
-0.052016 0.204428 1.397688
-0.097134 0.102214 1.397688
0.030084 -0.000000 1.397688
-0.099454 -0.102214 1.397688
-0.080595 -0.204428 1.397688
-0.054003 -0.306643 1.397688
0.001157 -0.408857 1.397688
3 0 1 2
3 3 4 5
3 6 7 3
3 8 9 6
3 10 11 8
3 12 13 10
3 14 15 12
3 2 16 14
3 3 7 4
3 7 17 4
3 6 9 7
3 9 18 7
3 7 18 17
3 18 19 17
3 8 11 9
3 11 20 9
3 9 20 18
3 20 21 18
3 18 21 19
3 21 22 19
3 10 13 11
3 13 23 11
3 11 23 20
3 23 24 20
3 20 24 21
3 24 25 21
3 21 25 22
3 25 26 22
3 12 15 13
3 15 27 13
3 13 27 23
3 27 28 23
3 23 28 24
3 28 29 24
3 24 29 25
3 29 30 25
3 25 30 26
3 30 31 26
3 14 16 15
3 16 32 15
3 15 32 27
3 32 33 27
3 27 33 28
3 33 34 28
3 28 34 29
3 34 35 29
3 29 35 30
3 35 36 30
3 30 36 31
3 36 37 31
3 2 1 16
3 1 38 16
3 16 38 32
3 38 39 32
3 32 39 33
3 39 40 33
3 33 40 34
3 40 41 34
3 34 41 35
3 41 42 35
3 35 42 36
3 42 43 36
3 36 43 37
3 43 44 37
