ply
format ascii 1.0
comment Created by Blender 2.93.1 - www.blender.org
element vertex 158
property float x
property float y
property float z
element face 156
property list uchar uint vertex_indices
end_header
0.117543 -0.011591 1.870768
0.035302 -0.073408 1.801246
0.061898 -0.113119 1.858890
-0.030982 -0.094462 1.924203
0.023574 -0.122165 1.725271
0.045591 -0.170933 1.786735
0.021100 0.048374 1.761395
0.045689 0.012229 1.817334
-0.009960 0.033335 1.891066
0.058840 0.093529 1.832184
0.058691 0.042063 2.011037
-0.013360 0.059896 1.971766
0.078524 0.017734 1.940290
0.005534 -0.024842 1.618934
-0.063083 -0.009226 1.690605
-0.078866 0.030252 1.637607
-0.033946 0.012068 1.574063
0.011228 -0.086308 1.456648
0.075768 -0.014200 1.435013
-0.018169 -0.064816 1.359509
0.046895 -0.105740 1.366033
-0.170638 0.076955 1.637195
0.021384 0.163512 1.694003
-0.113964 0.165507 1.614703
-0.111190 0.130108 1.568936
-0.011807 0.006364 2.176228
0.037806 0.049319 2.166726
0.060063 0.037105 2.111101
0.008008 -0.008339 2.134941
0.063856 0.086255 2.155826
-0.045809 0.043705 2.081784
0.085902 -0.021586 2.086860
0.024513 -0.072154 2.038779
-0.028243 -0.122396 2.088043
0.040236 -0.067623 2.123412
-0.140027 -0.072537 2.194861
-0.025564 -0.004594 2.306669
-0.137206 -0.035052 2.212676
-0.082721 -0.042299 2.185729
-0.013958 0.020523 1.396984
0.006018 0.067429 1.407581
0.002925 0.061839 1.397146
-0.023623 -0.005776 1.378327
-0.030166 -0.002625 1.436391
0.099923 0.017718 1.510518
-0.009515 0.025657 1.486395
-0.017455 0.062615 1.428571
-0.086304 0.063486 1.441502
-0.038618 0.097406 1.420733
-0.026319 0.082114 1.419374
0.024679 0.115664 1.916550
-0.047742 0.078155 2.052467
-0.001134 0.140035 2.000915
-0.049406 0.149305 2.107277
0.070735 0.118053 2.144926
-0.100527 0.080315 2.237385
-0.085892 0.161732 2.213639
-0.070000 0.039132 1.533392
-0.094277 0.090690 1.447186
-0.083900 0.122810 1.452869
-0.036518 0.157039 1.382568
-0.051420 0.123511 1.401651
0.041072 -0.097616 2.172753
0.108594 -0.115605 2.162321
-0.022003 0.177150 1.480654
-0.030738 0.212564 1.508440
-0.025177 0.238811 1.402177
-0.081862 0.205513 1.349615
0.097752 -0.305926 1.970545
0.104509 -0.235364 2.063420
-0.034274 -0.227369 1.985408
0.082030 -0.244178 1.924620
-0.143164 -0.164694 1.980464
0.027087 -0.166687 1.922149
-0.058879 -0.182283 2.036726
-0.017304 -0.208671 2.112870
0.043935 -0.229791 2.189015
-0.024917 -0.181253 2.236599
0.105031 -0.196510 1.855678
-0.075546 0.179701 1.775862
-0.004234 0.118387 1.773302
-0.072501 0.135200 1.861333
-0.011752 0.290413 1.969986
-0.207629 0.305502 1.870344
-0.156011 0.252676 1.766079
-0.190124 0.191161 1.857721
-0.251121 0.332360 1.731691
-0.053141 0.332787 1.638386
-0.048575 -0.372088 1.757259
0.067531 -0.382776 1.877670
0.153375 -0.273033 1.863832
0.038568 -0.265027 1.789206
-0.181734 0.235218 1.573413
-0.131462 0.210036 1.690391
-0.080466 -0.252263 1.557565
-0.035281 -0.153585 1.478283
0.012559 -0.146872 1.435244
0.034715 -0.229557 1.521504
-0.091421 0.077634 1.411234
-0.162267 0.279087 1.456435
-0.014829 0.395601 1.510693
-0.013441 0.107854 1.441625
0.011036 0.078382 1.529437
-0.188246 0.387719 1.593039
-0.164506 0.513945 1.653982
0.033992 0.048503 1.617250
-0.044141 -0.007085 1.775154
-0.109429 0.422948 1.824997
-0.053831 0.413370 1.974609
-0.067846 -0.048088 1.933058
-0.165175 -0.070789 2.049360
-0.231842 0.282896 2.082251
-0.112215 0.232175 2.189892
-0.021498 -0.028913 2.165662
0.121720 0.004207 2.201327
-0.097443 -0.059772 2.236992
-0.150893 -0.082213 2.220493
-0.135252 0.019035 2.218890
-0.101656 -0.023938 2.200396
-0.139629 -0.087314 2.203993
0.064479 0.059685 2.218202
0.021371 0.088036 2.229868
-0.143186 0.019001 2.222352
-0.146042 -0.009592 2.217514
0.028078 0.110896 1.385350
0.015925 0.118207 1.389857
0.000385 0.101656 1.404616
0.000279 0.070653 1.418015
-0.109993 0.063333 1.380843
0.061627 -0.122326 2.222095
-0.027279 -0.110410 2.207590
0.120242 -0.276330 2.141431
0.114548 -0.367387 2.016469
0.094882 -0.454105 1.890001
0.064685 -0.341409 1.739374
0.080840 -0.401699 1.543873
-0.013805 -0.320973 1.636848
0.131020 -0.201487 1.714580
0.044410 -0.162197 1.649295
-0.108119 -0.140570 1.584009
-0.019856 0.220666 2.069628
-0.078343 0.168739 1.949363
-0.021973 -0.048504 1.989515
-0.153415 0.082651 1.523170
-0.068680 -0.090943 2.183186
-0.009170 -0.044437 2.158782
-0.100799 0.038459 1.462271
-0.126483 0.060722 1.492720
-0.103194 0.059920 1.580388
0.002578 0.048663 1.415640
-0.012060 0.022135 1.413265
-0.020523 0.039918 1.437768
-0.042205 -0.028599 1.386387
0.134547 0.025249 2.050308
-0.100747 0.058458 1.705455
-0.054432 -0.074913 1.547264
0.007848 -0.071712 1.663805
-0.008979 -0.038435 1.743602
4 0 1 2 3
4 4 5 2 1
4 6 7 8 9
4 10 11 8 12
4 13 14 15 16
4 17 18 19 20
4 21 22 23 24
4 25 26 27 28
4 29 30 27 26
4 31 32 33 34
4 35 36 37 38
4 39 40 41 42
4 43 18 44 45
4 46 47 48 49
4 50 11 51 52
4 53 54 55 56
4 57 45 44 16
4 58 59 60 61
4 62 34 33 63
4 64 65 66 67
4 68 69 70 71
4 72 73 70 74
4 75 76 77 63
4 78 71 70 73
4 79 22 80 81
4 82 83 84 85
4 86 87 84 83
4 88 89 90 91
4 92 65 23 93
4 94 95 96 97
4 98 99 100 101
4 102 103 104 105
4 106 107 108 109
4 110 111 112 113
4 114 56 55 115
4 116 117 118 119
4 120 121 122 123
4 124 42 41 125
4 126 40 127 49
4 61 126 49 48
4 60 125 126 61
4 125 41 40 126
4 67 124 125 60
4 66 128 124 67
4 128 19 42 124
4 36 120 123 37
4 118 117 120 36
4 117 55 121 120
4 129 116 119 130
4 77 115 116 129
4 115 55 117 116
4 76 114 115 77
4 131 113 114 76
4 113 112 56 114
4 132 110 113 131
4 133 109 110 132
4 109 108 111 110
4 134 106 109 133
4 135 105 106 134
4 105 104 107 106
4 97 102 105 135
4 96 101 102 97
4 101 100 103 102
4 20 98 101 96
4 19 128 98 20
4 128 66 99 98
4 136 94 97 135
4 137 138 94 136
4 138 139 95 94
4 87 92 93 84
4 100 99 92 87
4 99 66 65 92
4 136 88 91 137
4 135 134 88 136
4 134 133 89 88
4 107 86 83 108
4 104 103 86 107
4 103 100 87 86
4 140 82 85 141
4 112 111 82 140
4 111 108 83 82
4 85 79 81 141
4 84 93 79 85
4 93 23 22 79
4 5 78 73 2
4 137 91 78 5
4 91 90 71 78
4 74 75 63 33
4 70 69 75 74
4 69 131 76 75
4 32 72 74 33
4 142 3 72 32
4 3 2 73 72
4 89 68 71 90
4 133 132 68 89
4 132 131 69 68
4 59 64 67 60
4 143 24 64 59
4 24 23 65 64
4 129 62 63 77
4 130 144 62 129
4 144 145 34 62
4 47 58 61 48
4 146 147 58 47
4 147 143 59 58
4 148 57 16 15
4 143 147 57 148
4 147 146 45 57
4 140 53 56 112
4 141 52 53 140
4 52 51 54 53
4 81 50 52 141
4 80 9 50 81
4 9 8 11 50
4 149 46 49 127
4 150 151 46 149
4 151 146 47 46
4 151 43 45 146
4 150 152 43 151
4 152 19 18 43
4 152 39 42 19
4 150 149 39 152
4 149 127 40 39
4 144 35 38 145
4 130 119 35 144
4 119 118 36 35
4 28 31 34 145
4 27 153 31 28
4 153 142 32 31
4 121 29 26 122
4 55 54 29 121
4 54 51 30 29
4 38 25 28 145
4 37 123 25 38
4 123 122 26 25
4 148 21 24 143
4 15 154 21 148
4 154 80 22 21
4 95 17 20 96
4 139 155 17 95
4 155 44 18 17
4 155 13 16 44
4 139 156 13 155
4 156 157 14 13
4 153 10 12 142
4 27 30 10 153
4 30 51 11 10
4 154 6 9 80
4 15 14 6 154
4 14 157 7 6
4 156 4 1 157
4 139 138 4 156
4 138 137 5 4
4 12 0 3 142
4 8 7 0 12
4 7 157 1 0
