ply
format ascii 1.0
comment Created by Blender 2.93.1 - www.blender.org
element vertex 41
property float x
property float y
property float z
element face 39
property list uchar uint vertex_indices
end_header
-0.032351 0.029276 1.891066
-0.034456 -0.039730 1.743602
0.035399 -0.087557 1.858890
-0.017367 -0.036062 1.989515
-0.101586 -0.149606 1.584009
0.129772 -0.133663 1.714580
-0.104895 0.001867 1.637607
-0.020428 0.114759 1.773302
0.022564 0.046871 2.111101
-0.083533 0.051434 2.052467
0.061053 0.040798 1.510518
-0.035596 -0.062897 1.359509
0.071977 -0.110631 1.372557
-0.192987 0.087146 1.614703
-0.172172 0.031137 1.523170
-0.149921 -0.070875 2.212676
-0.168362 -0.029145 2.222352
-0.027564 -0.041351 2.158782
-0.154317 0.025910 2.237385
0.013692 -0.086089 2.088043
-0.097896 -0.139478 2.207590
-0.116224 -0.049925 2.200396
-0.043745 0.012687 1.413265
-0.036583 0.059371 1.418015
-0.047523 0.044093 1.397146
-0.108398 0.013100 1.462271
-0.078153 0.070356 1.420733
-0.052870 0.162102 1.949363
-0.132587 0.184319 2.189892
-0.102647 0.111806 1.382568
0.034385 -0.130371 2.236599
-0.152804 0.156944 1.402177
0.156292 -0.354585 1.891507
0.093095 -0.222556 2.141431
-0.012989 -0.198762 1.985408
0.162969 -0.187466 1.863832
-0.271575 0.134411 1.766079
-0.199896 0.246231 1.950661
-0.298677 0.417323 1.639992
-0.233214 0.303939 1.473259
0.124518 -0.315671 1.541740
4 0 1 2 3
4 4 5 2 1
4 6 1 0 7
4 8 9 0 3
4 4 1 6 10
4 4 10 11 12
4 6 7 13 14
4 15 16 8 17
4 18 9 8 16
4 8 3 19 17
4 20 21 15 17
4 22 23 24 11
4 22 11 10 25
4 22 25 26 23
4 7 0 9 27
4 27 9 18 28
4 14 25 10 6
4 25 14 29 26
4 20 17 19 30
4 14 13 31 29
4 32 33 34 35
4 3 2 34 19
4 34 33 30 19
4 5 35 34 2
4 36 13 7 27
4 28 37 36 27
4 38 39 36 37
4 40 32 35 5
4 39 31 13 36
4 5 4 12 40
4 11 31 39 12
4 12 39 38 40
4 40 38 37 32
4 32 37 28 33
4 33 28 18 30
4 30 18 21 20
4 21 18 16 15
4 31 11 24 29
4 29 24 23 26
