ply
format ascii 1.0
comment Created by Blender 2.93.1 - www.blender.org
element vertex 70
property float x
property float y
property float z
element face 54
property list uchar uint vertex_indices
end_header
0.011206 -0.106035 0.622056
0.019242 -0.110322 0.517457
0.026088 -0.067872 0.486615
0.031794 -0.069297 0.623573
0.011624 -0.106197 0.328408
0.015719 -0.065635 0.326146
-0.057456 0.076774 0.473083
-0.099828 0.076247 0.478506
-0.099582 0.080319 0.667246
-0.059278 0.071432 0.634542
-0.099958 0.073883 0.769429
-0.061333 0.064930 0.771380
-0.013928 0.057516 0.472500
-0.018013 0.053812 0.313274
-0.057871 0.076064 0.308350
-0.017843 0.053468 0.628132
-0.100474 0.064424 0.303327
-0.022630 0.049713 0.154889
-0.007137 0.009394 0.157362
-0.008885 0.008558 -0.001537
-0.026100 0.047067 -0.000390
-0.052573 0.096217 0.004885
-0.057384 0.079384 0.146098
0.012398 0.020119 0.316166
-0.003165 -0.030249 0.158599
0.004998 -0.028556 -0.002125
0.013505 -0.025916 0.319791
0.000769 -0.062935 0.160628
0.009684 -0.065039 -0.003904
0.002793 0.014468 0.472935
-0.099913 0.080885 0.120193
-0.107479 0.082910 0.041549
0.005833 -0.103569 0.160254
-0.004524 -0.100602 -0.001222
0.015520 0.019343 1.400291
0.009706 0.016663 1.241838
-0.015360 0.053629 1.238356
-0.014558 0.053677 1.400106
0.010187 -0.028320 1.244428
0.025644 -0.023907 1.086138
0.004614 0.014505 1.083760
0.014382 -0.028109 1.398478
-0.010421 0.059124 1.078820
-0.058587 0.066223 1.231192
-0.050484 0.082964 1.400121
0.005475 0.015627 0.775705
0.004342 0.014715 0.927871
0.026833 -0.023398 0.927382
0.030572 -0.022459 0.772238
-0.023139 0.048088 0.775549
0.005682 0.015845 0.625702
0.014461 -0.026010 0.476113
0.024685 -0.023814 0.624542
-0.024168 0.046631 0.923329
-0.056933 0.075167 0.908026
-0.002071 -0.063398 1.251634
0.026891 -0.068542 1.088404
0.035374 -0.069974 0.922829
-0.004826 -0.097356 1.096117
0.011415 -0.106162 0.918398
0.008195 -0.104419 0.727131
0.043211 -0.071553 0.760849
-0.007736 -0.096322 1.282223
-0.053666 0.080636 1.068414
-0.102437 0.047504 1.222933
-0.096465 0.061439 1.373454
0.001274 -0.066898 1.396555
-0.019507 -0.103504 1.360893
-0.101175 0.057382 1.058103
-0.099852 0.075441 0.871536
4 0 1 2 3
4 4 5 2 1
4 6 7 8 9
4 8 10 11 9
4 6 12 13 14
4 15 12 6 9
4 6 14 16 7
4 17 18 19 20
4 21 22 17 20
4 17 13 23 18
4 18 24 25 19
4 18 23 26 24
4 24 27 28 25
4 13 17 22 14
4 29 23 13 12
4 30 22 21 31
4 16 14 22 30
4 28 27 32 33
4 26 5 27 24
4 27 5 4 32
4 34 35 36 37
4 35 38 39 40
4 41 38 35 34
4 35 40 42 36
4 36 43 44 37
4 45 46 47 48
4 49 45 50 15
4 51 29 50 52
4 48 52 50 45
4 49 53 46 45
4 54 53 49 11
4 15 50 29 12
4 29 51 26 23
4 15 9 11 49
4 5 26 51 2
4 3 2 51 52
4 46 40 39 47
4 46 53 42 40
4 55 56 39 38
4 57 56 58 59
4 57 59 60 61
4 47 39 56 57
4 55 62 58 56
4 42 63 43 36
4 43 64 65 44
4 38 41 66 55
4 62 55 66 67
4 60 0 3 61
4 54 63 42 53
4 47 57 61 48
4 68 63 54 69
4 64 43 63 68
4 69 54 11 10
4 61 3 52 48
