ply
format ascii 1.0
comment Created by Blender 2.93.1 - www.blender.org
element vertex 220
property float x
property float y
property float z
element face 206
property list uchar uint vertex_indices
end_header
0.106035 0.011206 0.622056
0.110322 0.019242 0.517457
0.067872 0.026088 0.486615
0.069297 0.031794 0.623573
0.106197 0.011624 0.328408
0.065635 0.015719 0.326146
-0.076774 -0.057456 0.473083
-0.076247 -0.099828 0.478506
-0.080319 -0.099582 0.667246
-0.071432 -0.059278 0.634542
-0.073883 -0.099958 0.769429
-0.064930 -0.061333 0.771380
-0.057516 -0.013928 0.472500
-0.053812 -0.018013 0.313274
-0.076064 -0.057871 0.308350
-0.053468 -0.017843 0.628132
-0.064424 -0.100474 0.303327
-0.049713 -0.022630 0.154889
-0.009394 -0.007137 0.157362
-0.008558 -0.008885 -0.001537
-0.047067 -0.026100 -0.000390
-0.096217 -0.052573 0.004885
-0.079384 -0.057384 0.146098
-0.020119 0.012398 0.316166
0.030249 -0.003165 0.158599
0.028556 0.004998 -0.002125
0.025916 0.013505 0.319791
0.062935 0.000769 0.160628
0.065039 0.009684 -0.003904
-0.014468 0.002793 0.472935
-0.080885 -0.099913 0.120193
-0.082910 -0.107479 0.041549
0.103569 0.005833 0.160254
0.100602 -0.004524 -0.001222
-0.019343 0.015520 1.400291
-0.016663 0.009706 1.241838
-0.053629 -0.015360 1.238356
-0.053677 -0.014558 1.400106
0.028320 0.010187 1.244428
0.023907 0.025644 1.086138
-0.014505 0.004614 1.083760
0.028109 0.014382 1.398478
-0.059124 -0.010421 1.078820
-0.066223 -0.058587 1.231192
-0.082964 -0.050484 1.400121
-0.015627 0.005475 0.775705
-0.014715 0.004342 0.927871
0.023398 0.026833 0.927382
0.022459 0.030572 0.772238
-0.048088 -0.023139 0.775549
-0.015845 0.005682 0.625702
0.026010 0.014461 0.476113
0.023814 0.024685 0.624542
-0.046631 -0.024168 0.923329
-0.075167 -0.056933 0.908026
0.063398 -0.002071 1.251634
0.068542 0.026891 1.088404
0.069974 0.035374 0.922829
0.097356 -0.004826 1.096117
0.106162 0.011415 0.918398
0.104419 0.008195 0.727131
0.071553 0.043211 0.760849
0.096322 -0.007736 1.282223
-0.080636 -0.053666 1.068414
-0.047504 -0.102437 1.222933
-0.061439 -0.096465 1.373454
0.066898 0.001274 1.396555
0.103504 -0.019507 1.360893
-0.057382 -0.101175 1.058103
-0.075441 -0.099852 0.871536
0.283672 0.053299 2.086166
0.408504 0.065655 2.086166
0.355821 0.156906 2.200451
0.256377 0.100576 2.200451
-0.283163 -0.336343 2.086166
-0.214139 -0.227323 2.086166
-0.241147 -0.180545 2.200451
-0.373846 -0.179274 2.200451
-0.175366 -0.065909 2.086166
-0.136144 -0.133844 2.200451
-0.025676 -0.096609 2.086166
-0.039912 -0.071950 2.200451
0.013761 0.063656 2.086166
0.133782 -0.144226 2.200451
0.191347 -0.015361 2.086166
0.137838 0.077319 2.200451
-0.344909 -0.229395 1.400451
-0.268719 -0.132788 1.400451
-0.226112 -0.206586 1.514737
-0.392211 -0.147466 1.514737
-0.198916 -0.253690 1.629023
-0.311455 -0.287339 1.629023
-0.169588 -0.304488 1.743309
-0.303256 -0.301540 1.743309
-0.281066 -0.111402 1.857594
-0.319038 -0.274205 1.857594
-0.281810 -0.110113 1.971880
-0.296209 -0.313745 1.971880
-0.127277 -0.149203 1.400451
-0.139165 -0.128612 1.514737
-0.121362 -0.159448 1.629023
-0.206056 -0.012752 1.743309
-0.088406 -0.216529 1.857594
-0.151384 -0.107447 1.971880
-0.062799 -0.032309 1.400451
0.008074 -0.155065 1.514737
-0.002795 -0.136239 1.629023
-0.059974 -0.037203 1.743309
-0.071225 -0.017715 1.857594
-0.052333 -0.050437 1.971880
0.069044 -0.032096 1.400451
0.038170 0.021378 1.514737
0.070705 -0.034975 1.629023
0.055480 -0.008603 1.743309
-0.021209 0.124226 1.857594
0.108082 -0.099713 1.971880
0.094789 0.151883 1.400451
0.202316 -0.034360 1.514737
0.173551 0.015463 1.629023
0.157581 0.043125 1.743309
0.108757 0.127690 1.857594
0.184775 -0.003978 1.971880
0.287406 0.046833 1.400451
0.272641 0.072406 1.514737
0.283500 0.053596 1.629023
0.255137 0.102723 1.743309
0.198656 0.200551 1.857594
0.268950 0.078798 1.971880
0.427243 0.033198 1.400451
0.362644 0.145088 1.514737
0.385109 0.106176 1.629023
0.380298 0.114510 1.743309
0.366797 0.137893 1.857594
0.341886 0.181042 1.971880
-0.354118 -0.231159 1.397688
-0.236998 -0.229588 1.397688
-0.292041 -0.236464 1.486208
-0.064483 -0.017321 2.017329
0.100434 -0.098538 2.017329
0.039422 -0.095075 2.105849
-0.077584 -0.096843 1.928809
-0.017265 0.003108 1.928809
-0.124062 -0.118555 1.840289
-0.068176 -0.010926 1.840289
-0.126212 -0.217047 1.751769
-0.108170 -0.043867 1.751769
-0.217290 -0.161509 1.663248
-0.090976 -0.175863 1.663248
-0.207650 -0.280420 1.574728
-0.150111 -0.175651 1.574728
-0.167555 -0.247652 1.486208
0.096828 0.009922 1.928809
0.050326 -0.011748 1.840289
0.185284 -0.041074 1.840289
-0.051243 0.061960 1.751769
0.111165 -0.014910 1.751769
0.172755 0.082842 1.751769
-0.071647 -0.004912 1.663248
0.009740 0.058549 1.663248
0.114200 0.082047 1.663248
0.215729 0.110623 1.663248
-0.111121 -0.038755 1.574728
0.012592 -0.048605 1.574728
0.087565 0.025967 1.574728
0.169469 0.088534 1.574728
0.312168 0.045800 1.574728
-0.113065 -0.137604 1.486208
-0.016623 -0.100218 1.486208
0.069180 -0.044404 1.486208
0.121212 0.069903 1.486208
0.210330 0.119974 1.486208
0.355588 0.072808 1.486208
-0.137635 -0.197261 1.397688
-0.026556 -0.185228 1.397688
-0.001645 -0.023947 1.397688
0.151645 -0.085023 1.397688
0.230735 -0.017583 1.397688
0.305959 0.056553 1.397688
0.366899 0.155431 1.397688
-0.029276 -0.032351 1.891066
0.039730 -0.034456 1.743602
0.087557 0.035399 1.858890
0.036062 -0.017367 1.989515
0.149606 -0.101586 1.584009
0.133663 0.129772 1.714580
-0.001867 -0.104895 1.637607
-0.114759 -0.020428 1.773302
-0.046871 0.022564 2.111101
-0.051434 -0.083533 2.052467
-0.040798 0.061053 1.510518
0.062897 -0.035596 1.359509
0.110631 0.071977 1.372557
-0.087146 -0.192987 1.614703
-0.031137 -0.172172 1.523170
0.070875 -0.149921 2.212676
0.029145 -0.168362 2.222352
0.041351 -0.027564 2.158782
-0.025910 -0.154317 2.237385
0.086089 0.013692 2.088043
0.139478 -0.097896 2.207590
0.049925 -0.116224 2.200396
-0.012687 -0.043745 1.413265
-0.059371 -0.036583 1.418015
-0.044093 -0.047523 1.397146
-0.013100 -0.108398 1.462271
-0.070356 -0.078153 1.420733
-0.162102 -0.052870 1.949363
-0.184319 -0.132587 2.189892
-0.111806 -0.102647 1.382568
0.130371 0.034385 2.236599
-0.156944 -0.152804 1.402177
0.354585 0.156292 1.891507
0.222556 0.093095 2.141431
0.198762 -0.012989 1.985408
0.187466 0.162969 1.863832
-0.134411 -0.271575 1.766079
-0.246231 -0.199896 1.950661
-0.417323 -0.298677 1.639992
-0.303939 -0.233214 1.473259
0.315671 0.124518 1.541740
4 0 1 2 3
4 4 5 2 1
4 6 7 8 9
4 8 10 11 9
4 6 12 13 14
4 15 12 6 9
4 6 14 16 7
4 17 18 19 20
4 21 22 17 20
4 17 13 23 18
4 18 24 25 19
4 18 23 26 24
4 24 27 28 25
4 13 17 22 14
4 29 23 13 12
4 30 22 21 31
4 16 14 22 30
4 28 27 32 33
4 26 5 27 24
4 27 5 4 32
4 34 35 36 37
4 35 38 39 40
4 41 38 35 34
4 35 40 42 36
4 36 43 44 37
4 45 46 47 48
4 49 45 50 15
4 51 29 50 52
4 48 52 50 45
4 49 53 46 45
4 54 53 49 11
4 15 50 29 12
4 29 51 26 23
4 15 9 11 49
4 5 26 51 2
4 3 2 51 52
4 46 40 39 47
4 46 53 42 40
4 55 56 39 38
4 57 56 58 59
4 57 59 60 61
4 47 39 56 57
4 55 62 58 56
4 42 63 43 36
4 43 64 65 44
4 38 41 66 55
4 62 55 66 67
4 60 0 3 61
4 54 63 42 53
4 47 57 61 48
4 68 63 54 69
4 64 43 63 68
4 69 54 11 10
4 61 3 52 48
4 70 71 72 73
4 74 75 76 77
4 75 78 79 76
4 78 80 81 79
4 80 82 83 81
4 82 84 85 83
4 84 70 73 85
4 86 87 88 89
4 89 88 90 91
4 91 90 92 93
4 93 92 94 95
4 95 94 96 97
4 97 96 75 74
4 87 98 99 88
4 88 99 100 90
4 90 100 101 92
4 92 101 102 94
4 94 102 103 96
4 96 103 78 75
4 98 104 105 99
4 99 105 106 100
4 100 106 107 101
4 101 107 108 102
4 102 108 109 103
4 103 109 80 78
4 104 110 111 105
4 105 111 112 106
4 106 112 113 107
4 107 113 114 108
4 108 114 115 109
4 109 115 82 80
4 110 116 117 111
4 111 117 118 112
4 112 118 119 113
4 113 119 120 114
4 114 120 121 115
4 115 121 84 82
4 116 122 123 117
4 117 123 124 118
4 118 124 125 119
4 119 125 126 120
4 120 126 127 121
4 121 127 70 84
4 122 128 129 123
4 123 129 130 124
4 124 130 131 125
4 125 131 132 126
4 126 132 133 127
4 127 133 71 70
3 134 135 136
3 137 138 139
3 140 141 137
3 142 143 140
3 144 145 142
3 146 147 144
3 148 149 146
3 136 150 148
3 137 141 138
3 141 151 138
3 140 143 141
3 143 152 141
3 141 152 151
3 152 153 151
3 142 145 143
3 145 154 143
3 143 154 152
3 154 155 152
3 152 155 153
3 155 156 153
3 144 147 145
3 147 157 145
3 145 157 154
3 157 158 154
3 154 158 155
3 158 159 155
3 155 159 156
3 159 160 156
3 146 149 147
3 149 161 147
3 147 161 157
3 161 162 157
3 157 162 158
3 162 163 158
3 158 163 159
3 163 164 159
3 159 164 160
3 164 165 160
3 148 150 149
3 150 166 149
3 149 166 161
3 166 167 161
3 161 167 162
3 167 168 162
3 162 168 163
3 168 169 163
3 163 169 164
3 169 170 164
3 164 170 165
3 170 171 165
3 136 135 150
3 135 172 150
3 150 172 166
3 172 173 166
3 166 173 167
3 173 174 167
3 167 174 168
3 174 175 168
3 168 175 169
3 175 176 169
3 169 176 170
3 176 177 170
3 170 177 171
3 177 178 171
4 179 180 181 182
4 183 184 181 180
4 185 180 179 186
4 187 188 179 182
4 183 180 185 189
4 183 189 190 191
4 185 186 192 193
4 194 195 187 196
4 197 188 187 195
4 187 182 198 196
4 199 200 194 196
4 201 202 203 190
4 201 190 189 204
4 201 204 205 202
4 186 179 188 206
4 206 188 197 207
4 193 204 189 185
4 204 193 208 205
4 199 196 198 209
4 193 192 210 208
4 211 212 213 214
4 182 181 213 198
4 213 212 209 198
4 184 214 213 181
4 215 192 186 206
4 207 216 215 206
4 217 218 215 216
4 219 211 214 184
4 218 210 192 215
4 184 183 191 219
4 190 210 218 191
4 191 218 217 219
4 219 217 216 211
4 211 216 207 212
4 212 207 197 209
4 209 197 200 199
4 200 197 195 194
4 210 190 203 208
4 208 203 202 205
