ply
format ascii 1.0
comment Created by Blender 2.93.1 - www.blender.org
element vertex 64
property float x
property float y
property float z
element face 49
property list uchar uint vertex_indices
end_header
0.053299 -0.283672 2.086166
0.065655 -0.408504 2.086166
0.156906 -0.355821 2.200451
0.100576 -0.256377 2.200451
-0.336343 0.283163 2.086166
-0.227323 0.214139 2.086166
-0.180545 0.241147 2.200451
-0.179274 0.373846 2.200451
-0.065909 0.175366 2.086166
-0.133844 0.136144 2.200451
-0.096609 0.025676 2.086166
-0.071950 0.039912 2.200451
0.063656 -0.013761 2.086166
-0.144226 -0.133782 2.200451
-0.015361 -0.191347 2.086166
0.077319 -0.137838 2.200451
-0.229395 0.344909 1.400451
-0.132788 0.268719 1.400451
-0.206586 0.226112 1.514737
-0.147466 0.392211 1.514737
-0.253690 0.198916 1.629023
-0.287339 0.311455 1.629023
-0.304488 0.169588 1.743309
-0.301540 0.303256 1.743309
-0.111402 0.281066 1.857594
-0.274205 0.319038 1.857594
-0.110113 0.281810 1.971880
-0.313745 0.296209 1.971880
-0.149203 0.127277 1.400451
-0.128612 0.139165 1.514737
-0.159448 0.121362 1.629023
-0.012752 0.206056 1.743309
-0.216529 0.088406 1.857594
-0.107447 0.151384 1.971880
-0.032309 0.062799 1.400451
-0.155065 -0.008074 1.514737
-0.136239 0.002795 1.629023
-0.037203 0.059974 1.743309
-0.017715 0.071225 1.857594
-0.050437 0.052333 1.971880
-0.032096 -0.069044 1.400451
0.021378 -0.038170 1.514737
-0.034975 -0.070705 1.629023
-0.008603 -0.055480 1.743309
0.124226 0.021209 1.857594
-0.099713 -0.108082 1.971880
0.151883 -0.094789 1.400451
-0.034360 -0.202316 1.514737
0.015463 -0.173551 1.629023
0.043125 -0.157581 1.743309
0.127690 -0.108757 1.857594
-0.003978 -0.184775 1.971880
0.046833 -0.287406 1.400451
0.072406 -0.272641 1.514737
0.053596 -0.283500 1.629023
0.102723 -0.255137 1.743309
0.200551 -0.198656 1.857594
0.078798 -0.268950 1.971880
0.033198 -0.427243 1.400451
0.145088 -0.362644 1.514737
0.106176 -0.385109 1.629023
0.114510 -0.380298 1.743309
0.137893 -0.366797 1.857594
0.181042 -0.341886 1.971880
4 0 1 2 3
4 4 5 6 7
4 5 8 9 6
4 8 10 11 9
4 10 12 13 11
4 12 14 15 13
4 14 0 3 15
4 16 17 18 19
4 19 18 20 21
4 21 20 22 23
4 23 22 24 25
4 25 24 26 27
4 27 26 5 4
4 17 28 29 18
4 18 29 30 20
4 20 30 31 22
4 22 31 32 24
4 24 32 33 26
4 26 33 8 5
4 28 34 35 29
4 29 35 36 30
4 30 36 37 31
4 31 37 38 32
4 32 38 39 33
4 33 39 10 8
4 34 40 41 35
4 35 41 42 36
4 36 42 43 37
4 37 43 44 38
4 38 44 45 39
4 39 45 12 10
4 40 46 47 41
4 41 47 48 42
4 42 48 49 43
4 43 49 50 44
4 44 50 51 45
4 45 51 14 12
4 46 52 53 47
4 47 53 54 48
4 48 54 55 49
4 49 55 56 50
4 50 56 57 51
4 51 57 0 14
4 52 58 59 53
4 53 59 60 54
4 54 60 61 55
4 55 61 62 56
4 56 62 63 57
4 57 63 1 0
