ply
format ascii 1.0
comment Created by Blender 2.93.1 - www.blender.org
element vertex 45
property float x
property float y
property float z
element face 64
property list uchar uint vertex_indices
end_header
-0.231159 0.354118 1.397688
-0.229588 0.236998 1.397688
-0.236464 0.292041 1.486208
-0.017321 0.064483 2.017329
-0.098538 -0.100434 2.017329
-0.095075 -0.039422 2.105849
-0.096843 0.077584 1.928809
0.003108 0.017265 1.928809
-0.118555 0.124062 1.840289
-0.010926 0.068176 1.840289
-0.217047 0.126212 1.751769
-0.043867 0.108170 1.751769
-0.161509 0.217290 1.663248
-0.175863 0.090976 1.663248
-0.280420 0.207650 1.574728
-0.175651 0.150111 1.574728
-0.247652 0.167555 1.486208
0.009922 -0.096828 1.928809
-0.011748 -0.050326 1.840289
-0.041074 -0.185284 1.840289
0.061960 0.051243 1.751769
-0.014910 -0.111165 1.751769
0.082842 -0.172755 1.751769
-0.004912 0.071647 1.663248
0.058549 -0.009740 1.663248
0.082047 -0.114200 1.663248
0.110623 -0.215729 1.663248
-0.038755 0.111121 1.574728
-0.048605 -0.012592 1.574728
0.025967 -0.087565 1.574728
0.088534 -0.169469 1.574728
0.045800 -0.312168 1.574728
-0.137604 0.113065 1.486208
-0.100218 0.016623 1.486208
-0.044404 -0.069180 1.486208
0.069903 -0.121212 1.486208
0.119974 -0.210330 1.486208
0.072808 -0.355588 1.486208
-0.197261 0.137635 1.397688
-0.185228 0.026556 1.397688
-0.023947 0.001645 1.397688
-0.085023 -0.151645 1.397688
-0.017583 -0.230735 1.397688
0.056553 -0.305959 1.397688
0.155431 -0.366899 1.397688
3 0 1 2
3 3 4 5
3 6 7 3
3 8 9 6
3 10 11 8
3 12 13 10
3 14 15 12
3 2 16 14
3 3 7 4
3 7 17 4
3 6 9 7
3 9 18 7
3 7 18 17
3 18 19 17
3 8 11 9
3 11 20 9
3 9 20 18
3 20 21 18
3 18 21 19
3 21 22 19
3 10 13 11
3 13 23 11
3 11 23 20
3 23 24 20
3 20 24 21
3 24 25 21
3 21 25 22
3 25 26 22
3 12 15 13
3 15 27 13
3 13 27 23
3 27 28 23
3 23 28 24
3 28 29 24
3 24 29 25
3 29 30 25
3 25 30 26
3 30 31 26
3 14 16 15
3 16 32 15
3 15 32 27
3 32 33 27
3 27 33 28
3 33 34 28
3 28 34 29
3 34 35 29
3 29 35 30
3 35 36 30
3 30 36 31
3 36 37 31
3 2 1 16
3 1 38 16
3 16 38 32
3 38 39 32
3 32 39 33
3 39 40 33
3 33 40 34
3 40 41 34
3 34 41 35
3 41 42 35
3 35 42 36
3 42 43 36
3 36 43 37
3 43 44 37
