ply
format ascii 1.0
comment Created by Blender 2.93.1 - www.blender.org
element vertex 158
property float x
property float y
property float z
element face 156
property list uchar uint vertex_indices
end_header
-0.352419 -0.045026 1.842331
-0.426612 -0.083451 1.750477
-0.426644 -0.128693 1.810146
-0.525543 -0.086632 1.851262
-0.430080 -0.127511 1.670892
-0.437637 -0.180316 1.732500
-0.399102 0.037857 1.716591
-0.399675 -0.003420 1.774350
-0.465403 0.031369 1.833071
-0.370923 0.071705 1.797428
-0.430220 0.022032 1.966702
-0.482822 0.057905 1.911951
-0.399487 -0.006601 1.901694
-0.395058 -0.028836 1.570189
-0.473725 0.004008 1.623309
-0.464864 0.046225 1.570816
-0.411052 0.017035 1.519449
-0.363109 -0.089680 1.410738
-0.279266 -0.036733 1.410806
-0.360023 -0.061312 1.310999
-0.311236 -0.117681 1.330825
-0.538706 0.115089 1.550604
-0.352610 0.148999 1.659279
-0.457869 0.185956 1.548978
-0.452285 0.151045 1.503093
-0.547674 0.005795 2.106247
-0.488186 0.034446 2.112351
-0.456077 0.016887 2.063367
-0.522176 -0.013535 2.070337
-0.451826 0.063381 2.110809
-0.545620 0.050664 2.009023
-0.440368 -0.046491 2.042480
-0.497842 -0.079447 1.977303
-0.572375 -0.114323 2.008333
-0.503944 -0.079140 2.063287
-0.691853 -0.037231 2.086905
-0.597010 -0.001228 2.228071
-0.684461 -0.001754 2.107330
-0.628463 -0.022856 2.094437
-0.344458 0.020029 1.353967
-0.316837 0.060167 1.372339
-0.318419 0.055568 1.361112
-0.355222 -0.002872 1.331768
-0.375566 0.001864 1.386428
-0.268291 -0.012155 1.491915
-0.362171 0.023838 1.441786
-0.345373 0.061591 1.386423
-0.412740 0.080252 1.381760
-0.354393 0.100674 1.375892
-0.346389 0.082720 1.376630
-0.419098 0.101928 1.871861
-0.531223 0.084441 1.982529
-0.458924 0.132150 1.948531
-0.529174 0.153597 2.039822
-0.434638 0.092315 2.104130
-0.627792 0.100189 2.148095
-0.587637 0.175045 2.134270
-0.427398 0.052509 1.472963
-0.414848 0.108593 1.387079
-0.398608 0.136933 1.397314
-0.327647 0.157732 1.343547
-0.354872 0.129203 1.356008
-0.523433 -0.108328 2.109146
-0.462232 -0.143179 2.114745
-0.334463 0.173401 1.443267
-0.340951 0.209869 1.470295
-0.301698 0.233783 1.370801
-0.349306 0.216290 1.303628
-0.470293 -0.324210 1.914043
-0.470385 -0.257800 2.010170
-0.577681 -0.214158 1.900657
-0.457638 -0.260496 1.869890
-0.662329 -0.125436 1.872857
-0.488888 -0.171425 1.858958
-0.602649 -0.164240 1.947094
-0.590164 -0.200490 2.029270
-0.558015 -0.236739 2.116716
-0.622436 -0.172035 2.148717
-0.406417 -0.220406 1.812240
-0.460187 0.189723 1.715201
-0.408318 0.112042 1.726449
-0.490593 0.145950 1.795539
-0.423231 0.280151 1.926075
-0.576426 0.345423 1.781870
-0.514486 0.281037 1.690524
-0.585411 0.230448 1.766394
-0.574404 0.382623 1.638868
-0.365430 0.331794 1.598265
-0.568155 -0.350245 1.667011
-0.493663 -0.390619 1.811630
-0.382553 -0.306834 1.827076
-0.468353 -0.269386 1.726828
-0.492985 0.270832 1.496822
-0.482652 0.233496 1.620695
-0.516269 -0.226249 1.474176
-0.428922 -0.142627 1.415502
-0.371468 -0.148525 1.386339
-0.393794 -0.234128 1.469660
-0.406143 0.095243 1.352191
-0.433579 0.308167 1.391635
-0.280931 0.382552 1.488709
-0.333697 0.104251 1.403066
-0.340955 0.069448 1.492031
-0.466015 0.419822 1.524367
-0.428082 0.535603 1.597624
-0.349735 0.034645 1.580589
-0.477399 0.001174 1.709856
-0.443706 0.433451 1.770485
-0.432949 0.409810 1.928257
-0.550636 -0.032297 1.853707
-0.677221 -0.029034 1.940193
-0.659514 0.329855 1.978988
-0.588440 0.249900 2.109471
-0.562801 -0.025772 2.091256
-0.430127 -0.030847 2.163729
-0.659835 -0.035923 2.139102
-0.711044 -0.043765 2.108299
-0.670724 0.049985 2.117444
-0.645335 -0.000220 2.105100
-0.697539 -0.051607 2.094836
-0.474032 0.037555 2.169435
-0.510184 0.076097 2.171826
-0.679031 0.052005 2.118802
-0.687592 0.025126 2.111499
-0.279634 0.096443 1.359292
-0.290311 0.106650 1.361097
-0.312768 0.094685 1.370359
-0.324086 0.064766 1.381199
-0.419180 0.086236 1.317235
-0.523203 -0.137515 2.160290
-0.599420 -0.102995 2.124851
-0.486138 -0.301443 2.086712
-0.481873 -0.387924 1.958485
-0.489168 -0.466596 1.825601
-0.450183 -0.349925 1.680107
-0.399584 -0.412342 1.491267
-0.491771 -0.309871 1.562820
-0.346895 -0.231939 1.682114
-0.400983 -0.171571 1.600032
-0.520990 -0.111204 1.500288
-0.474018 0.214879 2.015623
-0.510442 0.179858 1.881356
-0.522552 -0.044571 1.919680
-0.491701 0.116134 1.445150
-0.626865 -0.073476 2.092232
-0.553399 -0.043957 2.086652
-0.437895 0.059830 1.396521
-0.464175 0.087982 1.421003
-0.465336 0.081180 1.511452
-0.326823 0.042930 1.378007
-0.346498 0.021095 1.370276
-0.356290 0.040462 1.393019
-0.380350 -0.020109 1.333379
-0.373812 -0.013842 2.022472
-0.495788 0.079134 1.632771
-0.444975 -0.061679 1.482614
-0.416230 -0.074707 1.610970
-0.444263 -0.038209 1.686070
4 0 1 2 3
4 4 5 2 1
4 6 7 8 9
4 10 11 8 12
4 13 14 15 16
4 17 18 19 20
4 21 22 23 24
4 25 26 27 28
4 29 30 27 26
4 31 32 33 34
4 35 36 37 38
4 39 40 41 42
4 43 18 44 45
4 46 47 48 49
4 50 11 51 52
4 53 54 55 56
4 57 45 44 16
4 58 59 60 61
4 62 34 33 63
4 64 65 66 67
4 68 69 70 71
4 72 73 70 74
4 75 76 77 63
4 78 71 70 73
4 79 22 80 81
4 82 83 84 85
4 86 87 84 83
4 88 89 90 91
4 92 65 23 93
4 94 95 96 97
4 98 99 100 101
4 102 103 104 105
4 106 107 108 109
4 110 111 112 113
4 114 56 55 115
4 116 117 118 119
4 120 121 122 123
4 124 42 41 125
4 126 40 127 49
4 61 126 49 48
4 60 125 126 61
4 125 41 40 126
4 67 124 125 60
4 66 128 124 67
4 128 19 42 124
4 36 120 123 37
4 118 117 120 36
4 117 55 121 120
4 129 116 119 130
4 77 115 116 129
4 115 55 117 116
4 76 114 115 77
4 131 113 114 76
4 113 112 56 114
4 132 110 113 131
4 133 109 110 132
4 109 108 111 110
4 134 106 109 133
4 135 105 106 134
4 105 104 107 106
4 97 102 105 135
4 96 101 102 97
4 101 100 103 102
4 20 98 101 96
4 19 128 98 20
4 128 66 99 98
4 136 94 97 135
4 137 138 94 136
4 138 139 95 94
4 87 92 93 84
4 100 99 92 87
4 99 66 65 92
4 136 88 91 137
4 135 134 88 136
4 134 133 89 88
4 107 86 83 108
4 104 103 86 107
4 103 100 87 86
4 140 82 85 141
4 112 111 82 140
4 111 108 83 82
4 85 79 81 141
4 84 93 79 85
4 93 23 22 79
4 5 78 73 2
4 137 91 78 5
4 91 90 71 78
4 74 75 63 33
4 70 69 75 74
4 69 131 76 75
4 32 72 74 33
4 142 3 72 32
4 3 2 73 72
4 89 68 71 90
4 133 132 68 89
4 132 131 69 68
4 59 64 67 60
4 143 24 64 59
4 24 23 65 64
4 129 62 63 77
4 130 144 62 129
4 144 145 34 62
4 47 58 61 48
4 146 147 58 47
4 147 143 59 58
4 148 57 16 15
4 143 147 57 148
4 147 146 45 57
4 140 53 56 112
4 141 52 53 140
4 52 51 54 53
4 81 50 52 141
4 80 9 50 81
4 9 8 11 50
4 149 46 49 127
4 150 151 46 149
4 151 146 47 46
4 151 43 45 146
4 150 152 43 151
4 152 19 18 43
4 152 39 42 19
4 150 149 39 152
4 149 127 40 39
4 144 35 38 145
4 130 119 35 144
4 119 118 36 35
4 28 31 34 145
4 27 153 31 28
4 153 142 32 31
4 121 29 26 122
4 55 54 29 121
4 54 51 30 29
4 38 25 28 145
4 37 123 25 38
4 123 122 26 25
4 148 21 24 143
4 15 154 21 148
4 154 80 22 21
4 95 17 20 96
4 139 155 17 95
4 155 44 18 17
4 155 13 16 44
4 139 156 13 155
4 156 157 14 13
4 153 10 12 142
4 27 30 10 153
4 30 51 11 10
4 154 6 9 80
4 15 14 6 154
4 14 157 7 6
4 156 4 1 157
4 139 138 4 156
4 138 137 5 4
4 12 0 3 142
4 8 7 0 12
4 7 157 1 0
