ply
format ascii 1.0
comment Created by Blender 2.93.1 - www.blender.org
element vertex 41
property float x
property float y
property float z
element face 39
property list uchar uint vertex_indices
end_header
-0.454071 0.028132 1.836107
-0.450992 -0.030576 1.684267
-0.445494 -0.106923 1.805095
-0.498572 -0.035944 1.926105
-0.518908 -0.092167 1.500846
-0.351467 -0.194039 1.680889
-0.462393 0.040667 1.571478
-0.372332 0.096200 1.736092
-0.456585 0.015912 2.063231
-0.527957 0.072912 1.983404
-0.271879 -0.008592 1.490954
-0.363724 -0.050070 1.310007
-0.300168 -0.145195 1.340545
-0.488968 0.158567 1.540645
-0.474916 0.099654 1.449648
-0.684028 0.000183 2.107446
-0.681804 0.045544 2.118059
-0.553466 -0.035426 2.086634
-0.647357 0.086200 2.142853
-0.522253 -0.094798 2.021764
-0.672324 -0.085240 2.105316
-0.642543 0.001478 2.105849
-0.347950 0.019462 1.369887
-0.320641 0.056311 1.382122
-0.331770 0.048550 1.357535
-0.414517 0.052146 1.402785
-0.350813 0.086609 1.376851
-0.422174 0.153422 1.905008
-0.540381 0.212521 2.122348
-0.341407 0.134753 1.339860
-0.564779 -0.143494 2.164166
-0.366639 0.198922 1.353400
-0.481772 -0.398623 1.829142
-0.535558 -0.252684 2.073470
-0.572426 -0.179036 1.902065
-0.388312 -0.257233 1.825533
-0.571060 0.238793 1.675365
-0.504868 0.299793 1.884193
-0.424461 0.497353 1.584111
-0.381307 0.366429 1.423059
-0.399032 -0.349035 1.489207
4 0 1 2 3
4 4 5 2 1
4 6 1 0 7
4 8 9 0 3
4 4 1 6 10
4 4 10 11 12
4 6 7 13 14
4 15 16 8 17
4 18 9 8 16
4 8 3 19 17
4 20 21 15 17
4 22 23 24 11
4 22 11 10 25
4 22 25 26 23
4 7 0 9 27
4 27 9 18 28
4 14 25 10 6
4 25 14 29 26
4 20 17 19 30
4 14 13 31 29
4 32 33 34 35
4 3 2 34 19
4 34 33 30 19
4 5 35 34 2
4 36 13 7 27
4 28 37 36 27
4 38 39 36 37
4 40 32 35 5
4 39 31 13 36
4 5 4 12 40
4 11 31 39 12
4 12 39 38 40
4 40 38 37 32
4 32 37 28 33
4 33 28 18 30
4 30 18 21 20
4 21 18 16 15
4 31 11 24 29
4 29 24 23 26
