ply
format ascii 1.0
comment Created by Blender 2.93.1 - www.blender.org
element vertex 70
property float x
property float y
property float z
element face 54
property list uchar uint vertex_indices
end_header
-0.154541 -0.110830 0.602591
-0.122817 -0.118560 0.502802
-0.088606 -0.085220 0.480039
-0.119968 -0.089307 0.613425
-0.078267 -0.111179 0.319021
-0.054667 -0.078099 0.323004
-0.085130 0.081819 0.466961
-0.122233 0.102548 0.462634
-0.168911 0.105952 0.645525
-0.131023 0.078103 0.621819
-0.198780 0.100567 0.743308
-0.171299 0.073500 0.752692
-0.057869 0.043377 0.473662
-0.021864 0.042212 0.318467
-0.043185 0.081411 0.307656
-0.103379 0.041828 0.622589
-0.083144 0.092633 0.291749
0.013287 0.040971 0.163913
0.006135 -0.001694 0.164557
0.045395 -0.001543 0.010573
0.049296 0.040413 0.012805
0.049523 0.096215 0.018327
0.000820 0.084044 0.151471
-0.013446 -0.002173 0.323717
-0.010009 -0.038011 0.161512
0.039236 -0.040626 0.008313
-0.035691 -0.042594 0.321509
-0.023030 -0.068285 0.160123
0.025996 -0.074565 0.002924
-0.064784 -0.002264 0.472260
-0.027326 0.106607 0.117111
-0.012323 0.112144 0.039713
-0.038321 -0.106007 0.155639
-0.003759 -0.098260 -0.002272
-0.291801 -0.004406 1.371500
-0.256948 -0.003819 1.216796
-0.259161 0.040727 1.212598
-0.300332 0.040368 1.369022
-0.278941 -0.043017 1.213585
-0.222911 -0.046924 1.064724
-0.221336 -0.003143 1.062684
-0.315201 -0.044932 1.363353
-0.211085 0.043016 1.060316
-0.287385 0.073246 1.197619
-0.316244 0.083694 1.364774
-0.140344 -0.002602 0.765464
-0.181116 -0.002824 0.912073
-0.180582 -0.047077 0.911710
-0.136846 -0.048134 0.762811
-0.148562 0.039818 0.763101
-0.101241 -0.002516 0.620647
-0.075396 -0.043154 0.472706
-0.104199 -0.046363 0.618653
-0.188375 0.039071 0.905425
-0.198041 0.080166 0.886993
-0.308002 -0.067266 1.213258
-0.244012 -0.086203 1.061416
-0.194753 -0.091684 0.903199
-0.286456 -0.095297 1.058028
-0.231126 -0.111044 0.888866
-0.183474 -0.107924 0.703619
-0.147036 -0.096970 0.748291
-0.336559 -0.092946 1.237274
-0.234178 0.083269 1.043356
-0.330970 0.078961 1.177390
-0.358202 0.088043 1.325925
-0.344402 -0.071970 1.353538
-0.370235 -0.093281 1.309696
-0.282482 0.086884 1.019738
-0.224366 0.101862 0.842162
4 0 1 2 3
4 4 5 2 1
4 6 7 8 9
4 8 10 11 9
4 6 12 13 14
4 15 12 6 9
4 6 14 16 7
4 17 18 19 20
4 21 22 17 20
4 17 13 23 18
4 18 24 25 19
4 18 23 26 24
4 24 27 28 25
4 13 17 22 14
4 29 23 13 12
4 30 22 21 31
4 16 14 22 30
4 28 27 32 33
4 26 5 27 24
4 27 5 4 32
4 34 35 36 37
4 35 38 39 40
4 41 38 35 34
4 35 40 42 36
4 36 43 44 37
4 45 46 47 48
4 49 45 50 15
4 51 29 50 52
4 48 52 50 45
4 49 53 46 45
4 54 53 49 11
4 15 50 29 12
4 29 51 26 23
4 15 9 11 49
4 5 26 51 2
4 3 2 51 52
4 46 40 39 47
4 46 53 42 40
4 55 56 39 38
4 57 56 58 59
4 57 59 60 61
4 47 39 56 57
4 55 62 58 56
4 42 63 43 36
4 43 64 65 44
4 38 41 66 55
4 62 55 66 67
4 60 0 3 61
4 54 63 42 53
4 47 57 61 48
4 68 63 54 69
4 64 43 63 68
4 69 54 11 10
4 61 3 52 48
