ply
format ascii 1.0
comment Created by Blender 2.93.1 - www.blender.org
element vertex 220
property float x
property float y
property float z
element face 206
property list uchar uint vertex_indices
end_header
0.110830 -0.154541 0.602591
0.118560 -0.122817 0.502802
0.085220 -0.088606 0.480039
0.089307 -0.119968 0.613425
0.111179 -0.078267 0.319021
0.078099 -0.054667 0.323004
-0.081819 -0.085130 0.466961
-0.102548 -0.122233 0.462634
-0.105952 -0.168911 0.645525
-0.078103 -0.131023 0.621819
-0.100567 -0.198780 0.743308
-0.073500 -0.171299 0.752692
-0.043377 -0.057869 0.473662
-0.042212 -0.021864 0.318467
-0.081411 -0.043185 0.307656
-0.041828 -0.103379 0.622589
-0.092633 -0.083144 0.291749
-0.040971 0.013287 0.163913
0.001694 0.006135 0.164557
0.001543 0.045395 0.010573
-0.040413 0.049296 0.012805
-0.096215 0.049523 0.018327
-0.084044 0.000820 0.151471
0.002173 -0.013446 0.323717
0.038011 -0.010009 0.161512
0.040626 0.039236 0.008313
0.042594 -0.035691 0.321509
0.068285 -0.023030 0.160123
0.074565 0.025996 0.002924
0.002264 -0.064784 0.472260
-0.106607 -0.027326 0.117111
-0.112144 -0.012323 0.039713
0.106007 -0.038321 0.155639
0.098260 -0.003759 -0.002272
0.004406 -0.291801 1.371500
0.003819 -0.256948 1.216796
-0.040727 -0.259161 1.212598
-0.040368 -0.300332 1.369022
0.043017 -0.278941 1.213585
0.046924 -0.222911 1.064724
0.003143 -0.221336 1.062684
0.044932 -0.315201 1.363353
-0.043016 -0.211085 1.060316
-0.073246 -0.287385 1.197619
-0.083694 -0.316244 1.364774
0.002602 -0.140344 0.765464
0.002824 -0.181116 0.912073
0.047077 -0.180582 0.911710
0.048134 -0.136846 0.762811
-0.039818 -0.148562 0.763101
0.002516 -0.101241 0.620647
0.043154 -0.075396 0.472706
0.046363 -0.104199 0.618653
-0.039071 -0.188375 0.905425
-0.080166 -0.198041 0.886993
0.067266 -0.308002 1.213258
0.086203 -0.244012 1.061416
0.091684 -0.194753 0.903199
0.095297 -0.286456 1.058028
0.111044 -0.231126 0.888866
0.107924 -0.183474 0.703619
0.096970 -0.147036 0.748291
0.092946 -0.336559 1.237274
-0.083269 -0.234178 1.043356
-0.078961 -0.330970 1.177390
-0.088043 -0.358202 1.325925
0.071970 -0.344402 1.353538
0.093281 -0.370235 1.309696
-0.086884 -0.282482 1.019738
-0.101862 -0.224366 0.842162
0.285714 -0.584060 2.003259
0.400000 -0.634014 1.989874
0.400000 -0.561816 2.127537
0.285714 -0.560910 2.127779
-0.400000 -0.636242 1.989277
-0.285714 -0.578381 2.004781
-0.285714 -0.555787 2.129152
-0.400000 -0.490635 2.146610
-0.171429 -0.462082 2.035943
-0.171429 -0.567433 2.126032
-0.057143 -0.560057 2.009691
-0.057143 -0.562134 2.127452
0.057143 -0.445040 2.040509
0.057143 -0.706481 2.088774
0.171429 -0.596906 1.999817
0.171429 -0.523115 2.137907
-0.400000 -0.339481 1.358890
-0.285714 -0.295466 1.370684
-0.285714 -0.407355 1.459021
-0.400000 -0.277681 1.493767
-0.285714 -0.489472 1.555335
-0.400000 -0.463269 1.562356
-0.285714 -0.575709 1.650545
-0.400000 -0.508687 1.668504
-0.285714 -0.389929 1.818642
-0.400000 -0.507778 1.787064
-0.285714 -0.418071 1.929418
-0.400000 -0.581459 1.885639
-0.171429 -0.377508 1.348701
-0.171429 -0.384121 1.465246
-0.171429 -0.448093 1.566422
-0.171429 -0.314055 1.720655
-0.171429 -0.570917 1.770146
-0.171429 -0.478832 1.913138
-0.057143 -0.310865 1.366558
-0.057143 -0.477360 1.440263
-0.057143 -0.485942 1.556281
-0.057143 -0.405061 1.696270
-0.057143 -0.412904 1.812486
-0.057143 -0.478981 1.913098
0.057143 -0.374362 1.349544
0.057143 -0.344298 1.475917
0.057143 -0.436731 1.569467
0.057143 -0.436897 1.687740
0.057143 -0.318324 1.837829
0.057143 -0.597675 1.881294
0.171429 -0.232895 1.387450
0.171429 -0.470200 1.442181
0.171429 -0.444209 1.567463
0.171429 -0.442936 1.686121
0.171429 -0.378196 1.821786
0.171429 -0.554631 1.892827
0.285714 -0.413797 1.338977
0.285714 -0.414854 1.457012
0.285714 -0.465412 1.561782
0.285714 -0.440197 1.686855
0.285714 -0.360664 1.826483
0.285714 -0.526041 1.900488
0.400000 -0.492740 1.317825
0.400000 -0.397521 1.461656
0.400000 -0.470501 1.560418
0.400000 -0.490785 1.673300
0.400000 -0.494284 1.790680
0.400000 -0.475738 1.913967
-0.408857 -0.335795 1.357017
-0.306643 -0.391045 1.342213
-0.357750 -0.393124 1.433299
-0.051107 -0.457173 1.965993
0.051107 -0.604761 1.926447
0.000000 -0.595308 2.020623
-0.102214 -0.494457 1.864360
0.000000 -0.439978 1.878958
-0.153321 -0.467262 1.780005
-0.051107 -0.404219 1.796897
-0.204428 -0.525702 1.672703
-0.102214 -0.389548 1.709185
-0.255536 -0.412346 1.611434
-0.153321 -0.485359 1.591870
-0.306643 -0.493562 1.498029
-0.204428 -0.433710 1.514066
-0.255536 -0.462605 1.414681
0.102214 -0.489380 1.865721
0.051107 -0.462139 1.781377
0.153321 -0.551850 1.757339
0.000000 -0.328516 1.725539
0.102214 -0.471256 1.687292
0.204428 -0.419230 1.701232
-0.051107 -0.351690 1.627686
0.051107 -0.337911 1.631379
0.153321 -0.368704 1.623127
0.255536 -0.393835 1.616394
-0.102214 -0.338025 1.539705
0.000000 -0.406014 1.521487
0.102214 -0.379842 1.528500
0.204428 -0.367060 1.531925
0.306643 -0.471727 1.503880
-0.153321 -0.396864 1.432296
-0.051107 -0.412168 1.428196
0.051107 -0.406919 1.429602
0.153321 -0.336428 1.448490
0.255536 -0.337584 1.448180
0.357750 -0.447194 1.418811
-0.204428 -0.411991 1.336600
-0.102214 -0.455573 1.324923
0.000000 -0.332689 1.357849
0.102214 -0.457814 1.324322
0.204428 -0.439597 1.329203
0.306643 -0.413911 1.336086
0.408857 -0.360631 1.350363
-0.028132 -0.454071 1.836107
0.030576 -0.450992 1.684267
0.106923 -0.445494 1.805095
0.035944 -0.498572 1.926105
0.092167 -0.518908 1.500846
0.194039 -0.351467 1.680889
-0.040667 -0.462393 1.571478
-0.096200 -0.372332 1.736092
-0.015912 -0.456585 2.063231
-0.072912 -0.527957 1.983404
0.008592 -0.271879 1.490954
0.050070 -0.363724 1.310007
0.145195 -0.300168 1.340545
-0.158567 -0.488968 1.540645
-0.099654 -0.474916 1.449648
-0.000183 -0.684028 2.107446
-0.045544 -0.681804 2.118059
0.035426 -0.553466 2.086634
-0.086200 -0.647357 2.142853
0.094798 -0.522253 2.021764
0.085240 -0.672324 2.105316
-0.001478 -0.642543 2.105849
-0.019462 -0.347950 1.369887
-0.056311 -0.320641 1.382122
-0.048550 -0.331770 1.357535
-0.052146 -0.414517 1.402785
-0.086609 -0.350813 1.376851
-0.153422 -0.422174 1.905008
-0.212521 -0.540381 2.122348
-0.134753 -0.341407 1.339860
0.143494 -0.564779 2.164166
-0.198922 -0.366639 1.353400
0.398623 -0.481772 1.829142
0.252684 -0.535558 2.073470
0.179036 -0.572426 1.902065
0.257233 -0.388312 1.825533
-0.238793 -0.571060 1.675365
-0.299793 -0.504868 1.884193
-0.497353 -0.424461 1.584111
-0.366429 -0.381307 1.423059
0.349035 -0.399032 1.489207
4 0 1 2 3
4 4 5 2 1
4 6 7 8 9
4 8 10 11 9
4 6 12 13 14
4 15 12 6 9
4 6 14 16 7
4 17 18 19 20
4 21 22 17 20
4 17 13 23 18
4 18 24 25 19
4 18 23 26 24
4 24 27 28 25
4 13 17 22 14
4 29 23 13 12
4 30 22 21 31
4 16 14 22 30
4 28 27 32 33
4 26 5 27 24
4 27 5 4 32
4 34 35 36 37
4 35 38 39 40
4 41 38 35 34
4 35 40 42 36
4 36 43 44 37
4 45 46 47 48
4 49 45 50 15
4 51 29 50 52
4 48 52 50 45
4 49 53 46 45
4 54 53 49 11
4 15 50 29 12
4 29 51 26 23
4 15 9 11 49
4 5 26 51 2
4 3 2 51 52
4 46 40 39 47
4 46 53 42 40
4 55 56 39 38
4 57 56 58 59
4 57 59 60 61
4 47 39 56 57
4 55 62 58 56
4 42 63 43 36
4 43 64 65 44
4 38 41 66 55
4 62 55 66 67
4 60 0 3 61
4 54 63 42 53
4 47 57 61 48
4 68 63 54 69
4 64 43 63 68
4 69 54 11 10
4 61 3 52 48
4 70 71 72 73
4 74 75 76 77
4 75 78 79 76
4 78 80 81 79
4 80 82 83 81
4 82 84 85 83
4 84 70 73 85
4 86 87 88 89
4 89 88 90 91
4 91 90 92 93
4 93 92 94 95
4 95 94 96 97
4 97 96 75 74
4 87 98 99 88
4 88 99 100 90
4 90 100 101 92
4 92 101 102 94
4 94 102 103 96
4 96 103 78 75
4 98 104 105 99
4 99 105 106 100
4 100 106 107 101
4 101 107 108 102
4 102 108 109 103
4 103 109 80 78
4 104 110 111 105
4 105 111 112 106
4 106 112 113 107
4 107 113 114 108
4 108 114 115 109
4 109 115 82 80
4 110 116 117 111
4 111 117 118 112
4 112 118 119 113
4 113 119 120 114
4 114 120 121 115
4 115 121 84 82
4 116 122 123 117
4 117 123 124 118
4 118 124 125 119
4 119 125 126 120
4 120 126 127 121
4 121 127 70 84
4 122 128 129 123
4 123 129 130 124
4 124 130 131 125
4 125 131 132 126
4 126 132 133 127
4 127 133 71 70
3 134 135 136
3 137 138 139
3 140 141 137
3 142 143 140
3 144 145 142
3 146 147 144
3 148 149 146
3 136 150 148
3 137 141 138
3 141 151 138
3 140 143 141
3 143 152 141
3 141 152 151
3 152 153 151
3 142 145 143
3 145 154 143
3 143 154 152
3 154 155 152
3 152 155 153
3 155 156 153
3 144 147 145
3 147 157 145
3 145 157 154
3 157 158 154
3 154 158 155
3 158 159 155
3 155 159 156
3 159 160 156
3 146 149 147
3 149 161 147
3 147 161 157
3 161 162 157
3 157 162 158
3 162 163 158
3 158 163 159
3 163 164 159
3 159 164 160
3 164 165 160
3 148 150 149
3 150 166 149
3 149 166 161
3 166 167 161
3 161 167 162
3 167 168 162
3 162 168 163
3 168 169 163
3 163 169 164
3 169 170 164
3 164 170 165
3 170 171 165
3 136 135 150
3 135 172 150
3 150 172 166
3 172 173 166
3 166 173 167
3 173 174 167
3 167 174 168
3 174 175 168
3 168 175 169
3 175 176 169
3 169 176 170
3 176 177 170
3 170 177 171
3 177 178 171
4 179 180 181 182
4 183 184 181 180
4 185 180 179 186
4 187 188 179 182
4 183 180 185 189
4 183 189 190 191
4 185 186 192 193
4 194 195 187 196
4 197 188 187 195
4 187 182 198 196
4 199 200 194 196
4 201 202 203 190
4 201 190 189 204
4 201 204 205 202
4 186 179 188 206
4 206 188 197 207
4 193 204 189 185
4 204 193 208 205
4 199 196 198 209
4 193 192 210 208
4 211 212 213 214
4 182 181 213 198
4 213 212 209 198
4 184 214 213 181
4 215 192 186 206
4 207 216 215 206
4 217 218 215 216
4 219 211 214 184
4 218 210 192 215
4 184 183 191 219
4 190 210 218 191
4 191 218 217 219
4 219 217 216 211
4 211 216 207 212
4 212 207 197 209
4 209 197 200 199
4 200 197 195 194
4 210 190 203 208
4 208 203 202 205
