ply
format ascii 1.0
comment Created by Blender 2.93.1 - www.blender.org
element vertex 64
property float x
property float y
property float z
element face 49
property list uchar uint vertex_indices
end_header
-0.584060 -0.285714 2.003259
-0.634014 -0.400000 1.989874
-0.561816 -0.400000 2.127537
-0.560910 -0.285714 2.127779
-0.636242 0.400000 1.989277
-0.578381 0.285714 2.004781
-0.555787 0.285714 2.129152
-0.490635 0.400000 2.146610
-0.462082 0.171429 2.035943
-0.567433 0.171429 2.126032
-0.560057 0.057143 2.009691
-0.562134 0.057143 2.127452
-0.445040 -0.057143 2.040509
-0.706481 -0.057143 2.088774
-0.596906 -0.171429 1.999817
-0.523115 -0.171429 2.137907
-0.339481 0.400000 1.358890
-0.295466 0.285714 1.370684
-0.407355 0.285714 1.459021
-0.277681 0.400000 1.493767
-0.489472 0.285714 1.555335
-0.463269 0.400000 1.562356
-0.575709 0.285714 1.650545
-0.508687 0.400000 1.668504
-0.389929 0.285714 1.818642
-0.507778 0.400000 1.787064
-0.418071 0.285714 1.929418
-0.581459 0.400000 1.885639
-0.377508 0.171429 1.348701
-0.384121 0.171429 1.465246
-0.448093 0.171429 1.566422
-0.314055 0.171429 1.720655
-0.570917 0.171429 1.770146
-0.478832 0.171429 1.913138
-0.310865 0.057143 1.366558
-0.477360 0.057143 1.440263
-0.485942 0.057143 1.556281
-0.405061 0.057143 1.696270
-0.412904 0.057143 1.812486
-0.478981 0.057143 1.913098
-0.374362 -0.057143 1.349544
-0.344298 -0.057143 1.475917
-0.436731 -0.057143 1.569467
-0.436897 -0.057143 1.687740
-0.318324 -0.057143 1.837829
-0.597675 -0.057143 1.881294
-0.232895 -0.171429 1.387450
-0.470200 -0.171429 1.442181
-0.444209 -0.171429 1.567463
-0.442936 -0.171429 1.686121
-0.378196 -0.171429 1.821786
-0.554631 -0.171429 1.892827
-0.413797 -0.285714 1.338977
-0.414854 -0.285714 1.457012
-0.465412 -0.285714 1.561782
-0.440197 -0.285714 1.686855
-0.360664 -0.285714 1.826483
-0.526041 -0.285714 1.900488
-0.492740 -0.400000 1.317825
-0.397521 -0.400000 1.461656
-0.470501 -0.400000 1.560418
-0.490785 -0.400000 1.673300
-0.494284 -0.400000 1.790680
-0.475738 -0.400000 1.913967
4 0 1 2 3
4 4 5 6 7
4 5 8 9 6
4 8 10 11 9
4 10 12 13 11
4 12 14 15 13
4 14 0 3 15
4 16 17 18 19
4 19 18 20 21
4 21 20 22 23
4 23 22 24 25
4 25 24 26 27
4 27 26 5 4
4 17 28 29 18
4 18 29 30 20
4 20 30 31 22
4 22 31 32 24
4 24 32 33 26
4 26 33 8 5
4 28 34 35 29
4 29 35 36 30
4 30 36 37 31
4 31 37 38 32
4 32 38 39 33
4 33 39 10 8
4 34 40 41 35
4 35 41 42 36
4 36 42 43 37
4 37 43 44 38
4 38 44 45 39
4 39 45 12 10
4 40 46 47 41
4 41 47 48 42
4 42 48 49 43
4 43 49 50 44
4 44 50 51 45
4 45 51 14 12
4 46 52 53 47
4 47 53 54 48
4 48 54 55 49
4 49 55 56 50
4 50 56 57 51
4 51 57 0 14
4 52 58 59 53
4 53 59 60 54
4 54 60 61 55
4 55 61 62 56
4 56 62 63 57
4 57 63 1 0
