ply
format ascii 1.0
comment Created by Blender 2.93.1 - www.blender.org
element vertex 45
property float x
property float y
property float z
element face 64
property list uchar uint vertex_indices
end_header
-0.335795 0.408857 1.357017
-0.391045 0.306643 1.342213
-0.393124 0.357750 1.433299
-0.457173 0.051107 1.965993
-0.604761 -0.051107 1.926447
-0.595308 0.000000 2.020623
-0.494457 0.102214 1.864360
-0.439978 -0.000000 1.878958
-0.467262 0.153321 1.780005
-0.404219 0.051107 1.796897
-0.525702 0.204428 1.672703
-0.389548 0.102214 1.709185
-0.412346 0.255536 1.611434
-0.485359 0.153321 1.591870
-0.493562 0.306643 1.498029
-0.433710 0.204428 1.514066
-0.462605 0.255536 1.414681
-0.489380 -0.102214 1.865721
-0.462139 -0.051107 1.781377
-0.551850 -0.153321 1.757339
-0.328516 -0.000000 1.725539
-0.471256 -0.102214 1.687292
-0.419230 -0.204428 1.701232
-0.351690 0.051107 1.627686
-0.337911 -0.051107 1.631379
-0.368704 -0.153321 1.623127
-0.393835 -0.255536 1.616394
-0.338025 0.102214 1.539705
-0.406014 -0.000000 1.521487
-0.379842 -0.102214 1.528500
-0.367060 -0.204428 1.531925
-0.471727 -0.306643 1.503880
-0.396864 0.153321 1.432296
-0.412168 0.051107 1.428196
-0.406919 -0.051107 1.429602
-0.336428 -0.153321 1.448490
-0.337584 -0.255536 1.448180
-0.447194 -0.357750 1.418811
-0.411991 0.204428 1.336600
-0.455573 0.102214 1.324923
-0.332689 -0.000000 1.357849
-0.457814 -0.102214 1.324322
-0.439597 -0.204428 1.329203
-0.413911 -0.306643 1.336086
-0.360631 -0.408857 1.350363
3 0 1 2
3 3 4 5
3 6 7 3
3 8 9 6
3 10 11 8
3 12 13 10
3 14 15 12
3 2 16 14
3 3 7 4
3 7 17 4
3 6 9 7
3 9 18 7
3 7 18 17
3 18 19 17
3 8 11 9
3 11 20 9
3 9 20 18
3 20 21 18
3 18 21 19
3 21 22 19
3 10 13 11
3 13 23 11
3 11 23 20
3 23 24 20
3 20 24 21
3 24 25 21
3 21 25 22
3 25 26 22
3 12 15 13
3 15 27 13
3 13 27 23
3 27 28 23
3 23 28 24
3 28 29 24
3 24 29 25
3 29 30 25
3 25 30 26
3 30 31 26
3 14 16 15
3 16 32 15
3 15 32 27
3 32 33 27
3 27 33 28
3 33 34 28
3 28 34 29
3 34 35 29
3 29 35 30
3 35 36 30
3 30 36 31
3 36 37 31
3 2 1 16
3 1 38 16
3 16 38 32
3 38 39 32
3 32 39 33
3 39 40 33
3 33 40 34
3 40 41 34
3 34 41 35
3 41 42 35
3 35 42 36
3 42 43 36
3 36 43 37
3 43 44 37
